<svg width="54" height="44" viewBox="0 0 54 44" fill="none" xmlns="http://www.w3.org/2000/svg">
<path d="M31.9867 5.45181L41.5703 1.49432C42.2999 1.19305 43.1355 1.54025 43.4368 2.26981L52.0124 23.0369C52.3137 23.7665 51.9665 24.6021 51.2369 24.9034L41.6533 28.8609C40.9237 29.1622 40.0881 28.815 39.7868 28.0854L31.2112 7.31829C30.9099 6.58873 31.2571 5.75308 31.9867 5.45181Z" fill="black" fill-opacity="0.33" stroke="#55229E" stroke-width="0.78465"/>
<path d="M41.5861 14.5914C43.0166 14.0007 43.7363 12.4565 43.1937 11.1424C42.651 9.82823 41.0514 9.24179 39.6209 9.83251C38.1904 10.4232 37.4707 11.9674 38.0133 13.2815C38.556 14.5957 40.1556 15.1821 41.5861 14.5914Z" fill="#55229E"/>
<path d="M33.5119 25.7784C33.5119 25.7784 5.26969 43.3098 1.98979 36.0457C-1.29012 28.7815 8.27834 24.3919 8.27834 24.3919C8.27834 24.3919 15.9565 25.8258 25.5249 21.4362L34.8473 18.8028C34.8473 18.8028 44.4673 8.48101 46.5884 13.2219C48.7096 17.9627 40.2521 24.5116 33.5119 25.7784Z" fill="#9F616A"/>
</svg>
