<svg width="60" height="55" viewBox="0 0 60 55" fill="none" xmlns="http://www.w3.org/2000/svg">
<path d="M51.0513 5.33146L1.41479 19.7935L2.72952 24.3059L52.366 9.84387L51.0513 5.33146Z" fill="#55229E"/>
<path d="M7.34521 40.2301L0.0291858 15.1201C-0.0250532 14.934 -0.0031151 14.7339 0.0901706 14.5639C0.183456 14.3939 0.340448 14.2679 0.526614 14.2137L48.9598 0.102273C49.1459 0.0482164 49.3459 0.0702289 49.5159 0.163481C49.6858 0.256733 49.8118 0.413605 49.8662 0.599663L56.3477 22.8453L56.1471 22.9038L49.6657 0.658107C49.6267 0.525264 49.5367 0.413276 49.4153 0.346678C49.294 0.280079 49.1512 0.264299 49.0182 0.302798L0.585045 14.4142C0.45207 14.453 0.339933 14.543 0.2733 14.6644C0.206668 14.7858 0.190998 14.9287 0.229738 15.0617L7.54576 40.1717L7.34521 40.2301Z" fill="#55229E"/>
<path d="M45.9183 22.3679C45.7714 22.3678 45.6284 22.32 45.5109 22.2318C45.3933 22.1437 45.3075 22.0198 45.2662 21.8788L44.0391 17.6672C43.989 17.4943 44.0094 17.3087 44.096 17.1509C44.1826 16.9931 44.3282 16.8761 44.501 16.8255L48.7126 15.5984C48.8855 15.5483 49.0712 15.5688 49.229 15.6554C49.3867 15.742 49.5037 15.8876 49.5543 16.0604L50.7813 20.272C50.8315 20.4448 50.811 20.6305 50.7244 20.7883C50.6379 20.9461 50.4922 21.0631 50.3195 21.1136L46.1079 22.3407C46.0463 22.3587 45.9825 22.3679 45.9183 22.3679V22.3679Z" fill="black" fill-opacity="0.72"/>
<path d="M7.52224 15.4883C7.50963 15.445 7.49463 15.4024 7.47731 15.3608C7.35956 15.075 7.14033 14.8428 6.86177 14.7088C6.5832 14.5748 6.26495 14.5485 5.96815 14.6349C5.67136 14.7213 5.41697 14.9144 5.25387 15.177C5.09076 15.4395 5.03044 15.7531 5.08451 16.0575C5.0921 16.1019 5.10222 16.1458 5.1148 16.1891C5.19107 16.4494 5.34962 16.678 5.56671 16.8407C5.7838 17.0034 6.04775 17.0914 6.31903 17.0915C6.43747 17.0918 6.55533 17.0749 6.66893 17.0414C6.98779 16.9482 7.25669 16.7324 7.41666 16.4412C7.57662 16.1501 7.61459 15.8074 7.52224 15.4883V15.4883ZM6.61044 16.8408C6.34452 16.918 6.05885 16.8866 5.81606 16.7534C5.57328 16.6203 5.39321 16.3963 5.31533 16.1306C5.3031 16.0873 5.29333 16.0434 5.28605 15.999C5.24688 15.7482 5.30038 15.4918 5.43656 15.2776C5.57273 15.0634 5.78226 14.9062 6.02595 14.8353C6.26965 14.7644 6.53083 14.7847 6.76065 14.8923C6.99048 15 7.17321 15.1877 7.27469 15.4204C7.2936 15.4612 7.30932 15.5035 7.32171 15.5467C7.39879 15.8127 7.36717 16.0983 7.23381 16.3409C7.10045 16.5836 6.87625 16.7634 6.61044 16.8408V16.8408Z" fill="black"/>
<path d="M4.44838 16.3832C4.38154 16.1537 4.38796 15.909 4.46675 15.6833C4.54554 15.4576 4.69276 15.262 4.88792 15.1239C4.70508 15.115 4.52276 15.1499 4.35614 15.2257C4.18952 15.3016 4.04343 15.4161 3.93004 15.5598C3.81665 15.7035 3.73924 15.8723 3.70427 16.0519C3.66929 16.2316 3.67776 16.4171 3.72897 16.5928C3.78018 16.7686 3.87264 16.9296 3.99866 17.0623C4.12467 17.1951 4.28059 17.2959 4.45343 17.3562C4.62627 17.4165 4.81101 17.4347 4.99228 17.4091C5.17355 17.3836 5.3461 17.3151 5.49554 17.2094C5.25674 17.1977 5.02753 17.1119 4.83983 16.9638C4.65213 16.8157 4.5153 16.6128 4.44838 16.3832V16.3832Z" fill="#55229E"/>
<path d="M36.9165 21.5597C36.8943 21.4797 36.8565 21.405 36.8054 21.3397C36.7542 21.2743 36.6907 21.2198 36.6184 21.179C36.5462 21.1383 36.4666 21.1122 36.3842 21.1022C36.3018 21.0923 36.2183 21.0986 36.1384 21.121L29.2043 23.0605L28.4575 23.2694H33.1471L33.8939 23.0605L36.4789 22.3378C36.64 22.2925 36.7766 22.1851 36.8587 22.0393C36.9407 21.8934 36.9615 21.7209 36.9165 21.5597V21.5597Z" fill="#726D6D"/>
<path d="M32.0107 20.1109C31.9655 19.9497 31.8582 19.813 31.7122 19.731C31.5663 19.6489 31.3938 19.6281 31.2326 19.6733L20.8278 22.5831C20.6824 22.6243 20.5565 22.7161 20.4728 22.8419C20.3891 22.9677 20.3531 23.1193 20.3713 23.2693H23.065L23.8128 23.0604L31.5731 20.8901C31.7343 20.8446 31.871 20.7371 31.953 20.591C32.0351 20.4449 32.0558 20.2722 32.0107 20.1109V20.1109Z" fill="#726D6D"/>
<path d="M58.5068 22.7698H8.05973C7.86589 22.77 7.68006 22.8471 7.54299 22.9842C7.40593 23.1212 7.32883 23.3071 7.32861 23.5009V53.3722C7.32882 53.5661 7.40592 53.7519 7.54298 53.889C7.68005 54.026 7.86589 54.1031 8.05973 54.1033H58.5068C58.7006 54.1031 58.8865 54.026 59.0235 53.889C59.1606 53.7519 59.2377 53.5661 59.2379 53.3722V23.5009C59.2377 23.3071 59.1606 23.1212 59.0235 22.9842C58.8865 22.8471 58.7006 22.77 58.5068 22.7698V22.7698ZM59.029 53.3722C59.029 53.5107 58.974 53.6435 58.876 53.7414C58.7781 53.8394 58.6453 53.8944 58.5068 53.8944H8.05973C7.92124 53.8944 7.78844 53.8394 7.69052 53.7414C7.59259 53.6435 7.53755 53.5107 7.5375 53.3722V23.5009C7.53756 23.3624 7.5926 23.2296 7.69053 23.1317C7.78845 23.0338 7.92124 22.9787 8.05973 22.9787H58.5068C58.6453 22.9787 58.7781 23.0338 58.876 23.1317C58.9739 23.2296 59.029 23.3624 59.029 23.5009V53.3722Z" fill="#55229E"/>
<path d="M13.2585 27.1339C13.0106 27.1339 12.7683 27.0604 12.5621 26.9227C12.356 26.7849 12.1954 26.5892 12.1005 26.3602C12.0057 26.1312 11.9808 25.8792 12.0292 25.636C12.0776 25.3929 12.1969 25.1696 12.3722 24.9943C12.5475 24.819 12.7708 24.6996 13.014 24.6513C13.2571 24.6029 13.5091 24.6277 13.7381 24.7226C13.9671 24.8175 14.1629 24.9781 14.3006 25.1842C14.4383 25.3903 14.5118 25.6327 14.5118 25.8805C14.5114 26.2128 14.3793 26.5314 14.1443 26.7664C13.9093 27.0013 13.5908 27.1335 13.2585 27.1339ZM13.2585 24.8361C13.0519 24.8361 12.85 24.8973 12.6782 25.0121C12.5064 25.1269 12.3726 25.29 12.2935 25.4808C12.2145 25.6717 12.1938 25.8817 12.2341 26.0843C12.2744 26.2869 12.3739 26.473 12.5199 26.6191C12.666 26.7651 12.8521 26.8646 13.0547 26.9049C13.2573 26.9452 13.4673 26.9245 13.6582 26.8455C13.849 26.7664 14.0121 26.6326 14.1269 26.4608C14.2417 26.289 14.3029 26.0871 14.3029 25.8805C14.3026 25.6036 14.1925 25.3382 13.9967 25.1423C13.8009 24.9465 13.5354 24.8364 13.2585 24.8361Z" fill="black"/>
<path d="M11.3101 25.8806C11.3102 25.6415 11.3848 25.4084 11.5235 25.2137C11.6623 25.019 11.8584 24.8725 12.0844 24.7945C11.9113 24.7348 11.7265 24.7173 11.5453 24.7435C11.3642 24.7697 11.1919 24.8388 11.0428 24.9451C10.8937 25.0513 10.7722 25.1917 10.6884 25.3544C10.6045 25.5171 10.5608 25.6975 10.5608 25.8806C10.5608 26.0636 10.6045 26.2441 10.6884 26.4068C10.7722 26.5695 10.8937 26.7099 11.0428 26.8161C11.1919 26.9224 11.3642 26.9915 11.5453 27.0177C11.7265 27.0439 11.9113 27.0264 12.0844 26.9667C11.8584 26.8887 11.6623 26.7421 11.5235 26.5475C11.3848 26.3528 11.3102 26.1197 11.3101 25.8806Z" fill="#55229E"/>
<path d="M18.3389 40.6886C18.0897 40.6883 17.8508 40.5891 17.6746 40.4129C17.4983 40.2367 17.3992 39.9978 17.3989 39.7486V36.9285C17.3989 36.6792 17.498 36.4401 17.6742 36.2638C17.8505 36.0876 18.0896 35.9885 18.3389 35.9885C18.5882 35.9885 18.8273 36.0876 19.0036 36.2638C19.1799 36.4401 19.2789 36.6792 19.2789 36.9285V39.7486C19.2787 39.9978 19.1795 40.2367 19.0033 40.4129C18.8271 40.5891 18.5882 40.6883 18.3389 40.6886Z" fill="black" fill-opacity="0.72"/>
<path d="M20.8458 40.6886C20.5965 40.6883 20.3576 40.5891 20.1814 40.4129C20.0052 40.2367 19.906 39.9978 19.9058 39.7486V36.9285C19.9058 36.6792 20.0048 36.4401 20.1811 36.2638C20.3574 36.0876 20.5965 35.9885 20.8458 35.9885C21.0951 35.9885 21.3342 36.0876 21.5104 36.2638C21.6867 36.4401 21.7858 36.6792 21.7858 36.9285V39.7486C21.7855 39.9978 21.6864 40.2367 21.5101 40.4129C21.3339 40.5891 21.095 40.6883 20.8458 40.6886Z" fill="black" fill-opacity="0.72"/>
<path d="M23.3528 40.6886C23.1036 40.6883 22.8647 40.5891 22.6885 40.4129C22.5123 40.2367 22.4131 39.9978 22.4128 39.7486V36.9285C22.4128 36.6792 22.5119 36.4401 22.6882 36.2638C22.8644 36.0876 23.1035 35.9885 23.3528 35.9885C23.6022 35.9885 23.8412 36.0876 24.0175 36.2638C24.1938 36.4401 24.2929 36.6792 24.2929 36.9285V39.7486C24.2926 39.9978 24.1934 40.2367 24.0172 40.4129C23.841 40.5891 23.6021 40.6883 23.3528 40.6886Z" fill="black" fill-opacity="0.72"/>
<path d="M27.2174 40.6886C26.9681 40.6883 26.7292 40.5891 26.553 40.4129C26.3768 40.2367 26.2776 39.9978 26.2773 39.7486V36.9285C26.2773 36.6792 26.3764 36.4401 26.5527 36.2638C26.729 36.0876 26.968 35.9885 27.2174 35.9885C27.4667 35.9885 27.7057 36.0876 27.882 36.2638C28.0583 36.4401 28.1574 36.6792 28.1574 36.9285V39.7486C28.1571 39.9978 28.0579 40.2367 27.8817 40.4129C27.7055 40.5891 27.4666 40.6883 27.2174 40.6886Z" fill="#55229E"/>
<path d="M29.7237 40.6886C29.4745 40.6883 29.2356 40.5891 29.0593 40.4129C28.8831 40.2367 28.784 39.9978 28.7837 39.7486V36.9285C28.7837 36.6792 28.8827 36.4401 29.059 36.2638C29.2353 36.0876 29.4744 35.9885 29.7237 35.9885C29.973 35.9885 30.2121 36.0876 30.3884 36.2638C30.5647 36.4401 30.6637 36.6792 30.6637 36.9285V39.7486C30.6634 39.9978 30.5643 40.2367 30.3881 40.4129C30.2118 40.5891 29.9729 40.6883 29.7237 40.6886Z" fill="#55229E"/>
<path d="M32.2305 40.6886C31.9813 40.6883 31.7424 40.5891 31.5662 40.4129C31.3899 40.2367 31.2908 39.9978 31.2905 39.7486V36.9285C31.2905 36.6792 31.3896 36.4401 31.5658 36.2638C31.7421 36.0876 31.9812 35.9885 32.2305 35.9885C32.4798 35.9885 32.7189 36.0876 32.8952 36.2638C33.0715 36.4401 33.1705 36.6792 33.1705 36.9285V39.7486C33.1703 39.9978 33.0711 40.2367 32.8949 40.4129C32.7187 40.5891 32.4798 40.6883 32.2305 40.6886Z" fill="#55229E"/>
<path d="M36.0948 40.6886C35.8456 40.6883 35.6067 40.5891 35.4304 40.4129C35.2542 40.2367 35.1551 39.9978 35.1548 39.7486V36.9285C35.1548 36.6792 35.2538 36.4401 35.4301 36.2638C35.6064 36.0876 35.8455 35.9885 36.0948 35.9885C36.3441 35.9885 36.5832 36.0876 36.7595 36.2638C36.9358 36.4401 37.0348 36.6792 37.0348 36.9285V39.7486C37.0345 39.9978 36.9354 40.2367 36.7592 40.4129C36.5829 40.5891 36.344 40.6883 36.0948 40.6886Z" fill="#55229E"/>
<path d="M38.6014 40.6886C38.3522 40.6883 38.1132 40.5891 37.937 40.4129C37.7608 40.2367 37.6617 39.9978 37.6614 39.7486V36.9285C37.6614 36.6792 37.7604 36.4401 37.9367 36.2638C38.113 36.0876 38.3521 35.9885 38.6014 35.9885C38.8507 35.9885 39.0898 36.0876 39.2661 36.2638C39.4424 36.4401 39.5414 36.6792 39.5414 36.9285V39.7486C39.5411 39.9978 39.442 40.2367 39.2658 40.4129C39.0895 40.5891 38.8506 40.6883 38.6014 40.6886Z" fill="#55229E"/>
<path d="M41.108 40.6886C40.8588 40.6883 40.6198 40.5891 40.4436 40.4129C40.2674 40.2367 40.1683 39.9978 40.168 39.7486V36.9285C40.168 36.6792 40.267 36.4401 40.4433 36.2638C40.6196 36.0876 40.8587 35.9885 41.108 35.9885C41.3573 35.9885 41.5964 36.0876 41.7727 36.2638C41.9489 36.4401 42.048 36.6792 42.048 36.9285V39.7486C42.0477 39.9978 41.9486 40.2367 41.7723 40.4129C41.5961 40.5891 41.3572 40.6883 41.108 40.6886Z" fill="#55229E"/>
<path d="M44.9727 40.6886C44.7235 40.6883 44.4846 40.5891 44.3084 40.4129C44.1321 40.2367 44.033 39.9978 44.0327 39.7486V36.9285C44.0327 36.6792 44.1318 36.4401 44.308 36.2638C44.4843 36.0876 44.7234 35.9885 44.9727 35.9885C45.222 35.9885 45.4611 36.0876 45.6374 36.2638C45.8137 36.4401 45.9127 36.6792 45.9127 36.9285V39.7486C45.9124 39.9978 45.8133 40.2367 45.6371 40.4129C45.4609 40.5891 45.2219 40.6883 44.9727 40.6886Z" fill="black" fill-opacity="0.72"/>
<path d="M47.4796 40.6886C47.2303 40.6883 46.9914 40.5891 46.8152 40.4129C46.639 40.2367 46.5398 39.9978 46.5396 39.7486V36.9285C46.5396 36.6792 46.6386 36.4401 46.8149 36.2638C46.9912 36.0876 47.2303 35.9885 47.4796 35.9885C47.7289 35.9885 47.968 36.0876 48.1442 36.2638C48.3205 36.4401 48.4196 36.6792 48.4196 36.9285V39.7486C48.4193 39.9978 48.3202 40.2367 48.1439 40.4129C47.9677 40.5891 47.7288 40.6883 47.4796 40.6886Z" fill="black" fill-opacity="0.72"/>
<path d="M49.9857 40.6886C49.7364 40.6883 49.4975 40.5891 49.3213 40.4129C49.1451 40.2367 49.0459 39.9978 49.0457 39.7486V36.9285C49.0457 36.6792 49.1447 36.4401 49.321 36.2638C49.4973 36.0876 49.7364 35.9885 49.9857 35.9885C50.235 35.9885 50.4741 36.0876 50.6503 36.2638C50.8266 36.4401 50.9257 36.6792 50.9257 36.9285V39.7486C50.9254 39.9978 50.8263 40.2367 50.65 40.4129C50.4738 40.5891 50.2349 40.6883 49.9857 40.6886Z" fill="black" fill-opacity="0.72"/>
<path d="M24.7121 51.1504H11.1927C11.0251 51.1504 10.8645 51.0839 10.746 50.9654C10.6276 50.847 10.561 50.6863 10.561 50.5188C10.561 50.3513 10.6276 50.1907 10.746 50.0722C10.8645 49.9538 11.0251 49.8872 11.1927 49.8872H24.7121C24.8796 49.8872 25.0402 49.9538 25.1587 50.0722C25.2771 50.1907 25.3437 50.3513 25.3437 50.5188C25.3437 50.6863 25.2771 50.847 25.1587 50.9654C25.0402 51.0839 24.8796 51.1504 24.7121 51.1504Z" fill="#726D6D"/>
<path d="M20.3781 48.4349H15.5276C15.3601 48.4349 15.1994 48.3683 15.081 48.2499C14.9625 48.1314 14.896 47.9708 14.896 47.8032C14.896 47.6357 14.9625 47.4751 15.081 47.3566C15.1994 47.2382 15.3601 47.1716 15.5276 47.1716H20.3781C20.5456 47.1716 20.7063 47.2382 20.8247 47.3566C20.9432 47.4751 21.0097 47.6357 21.0097 47.8032C21.0097 47.9708 20.9432 48.1314 20.8247 48.2499C20.7063 48.3683 20.5456 48.4349 20.3781 48.4349Z" fill="#726D6D"/>
<path d="M59.2815 29.304H7.79004V29.5128H59.2815V29.304Z" fill="#55229E"/>
</svg>

