<svg width="438" height="381" viewBox="0 0 438 381" fill="none" xmlns="http://www.w3.org/2000/svg">
<path d="M438 37C438 226.986 283.986 381 94 381C-95.9859 381 -250 226.986 -250 37C-250 -152.986 -95.9859 -307 94 -307C283.986 -307 438 -152.986 438 37ZM-201.003 37C-201.003 199.926 -68.9258 332.003 94 332.003C256.926 332.003 389.003 199.926 389.003 37C389.003 -125.926 256.926 -258.003 94 -258.003C-68.9258 -258.003 -201.003 -125.926 -201.003 37Z" fill="#55229E" fill-opacity="0.63"/>
<path d="M361.555 36.9998C361.555 184.767 241.766 304.555 93.9992 304.555C-53.7677 304.555 -173.556 184.767 -173.556 36.9998C-173.556 -110.767 -53.7677 -230.556 93.9992 -230.556C241.766 -230.556 361.555 -110.767 361.555 36.9998ZM-124.123 36.9998C-124.123 157.465 -26.4662 255.122 93.9992 255.122C214.465 255.122 312.121 157.465 312.121 36.9998C312.121 -83.4656 214.465 -181.122 93.9992 -181.122C-26.4662 -181.122 -124.123 -83.4656 -124.123 36.9998Z" fill="#55229E" fill-opacity="0.63"/>
</svg>

