<svg width="19" height="14" viewBox="0 0 19 14" fill="none" xmlns="http://www.w3.org/2000/svg">
<path d="M17.3476 6.16509C17.7582 6.70221 17.7582 7.42733 17.3476 7.9636C16.0541 9.65208 12.9509 13.1287 9.3279 13.1287C5.70489 13.1287 2.60168 9.65208 1.30825 7.9636C1.10845 7.70641 1 7.39001 1 7.06434C1 6.73867 1.10845 6.42227 1.30825 6.16509C2.60168 4.4766 5.70489 1 9.3279 1C12.9509 1 16.0541 4.4766 17.3476 6.16509V6.16509Z" stroke="#726D6D" stroke-opacity="0.5" stroke-width="1.0396" stroke-linecap="round" stroke-linejoin="round"/>
<path d="M9.32801 9.6634C10.7634 9.6634 11.927 8.49979 11.927 7.0644C11.927 5.62901 10.7634 4.46539 9.32801 4.46539C7.89262 4.46539 6.729 5.62901 6.729 7.0644C6.729 8.49979 7.89262 9.6634 9.32801 9.6634Z" stroke="#726D6D" stroke-opacity="0.5" stroke-width="1.0396" stroke-linecap="round" stroke-linejoin="round"/>
</svg>
