<svg width="21" height="18" viewBox="0 0 21 18" fill="none" xmlns="http://www.w3.org/2000/svg">
<path d="M2.8877 1L17.9917 16.104" stroke="#B8B6B6" stroke-width="1.888" stroke-linecap="round" stroke-linejoin="round"/>
<path d="M14.688 13.0417C13.4112 13.7295 11.968 14.216 10.44 14.216C5.22643 14.216 1 8.552 1 8.552C1 8.552 2.97147 5.90997 5.88241 4.23481M17.52 11.0382C18.9888 9.74636 19.88 8.552 19.88 8.552C19.88 8.552 15.6536 2.888 10.44 2.888C10.1214 2.888 9.80649 2.90915 9.496 2.94887" stroke="#B8B6B6" stroke-width="1.888" stroke-linecap="round" stroke-linejoin="round"/>
<path d="M11.6886 9.96799C11.3558 10.2617 10.9186 10.44 10.4398 10.44C9.39704 10.44 8.55176 9.59471 8.55176 8.55199C8.55176 8.0427 8.75341 7.58051 9.08123 7.24091" stroke="#B8B6B6" stroke-width="1.888" stroke-linecap="round" stroke-linejoin="round"/>
</svg>
