<svg width="40" height="41" viewBox="0 0 40 41" fill="none" xmlns="http://www.w3.org/2000/svg">
<g clip-path="url(#clip0_332_222)">
<path d="M23.5074 24.2433C23.0517 24.7323 22.5021 25.1246 21.8915 25.3967C21.2809 25.6688 20.6217 25.8151 19.9533 25.8269C19.2849 25.8386 18.621 25.7157 18.0012 25.4653C17.3813 25.215 16.8183 24.8423 16.3456 24.3696C15.8729 23.8969 15.5002 23.3339 15.2499 22.714C14.9995 22.0942 14.8766 21.4303 14.8884 20.7619C14.9001 20.0935 15.0464 19.4343 15.3185 18.8237C15.5906 18.2131 15.9829 17.6635 16.4719 17.2078M29.8459 30.5818C27.0095 32.7439 23.5557 33.9417 19.9897 34C8.37453 34 1.7373 20.7255 1.7373 20.7255C3.8013 16.8791 6.66401 13.5185 10.1334 10.8693L29.8459 30.5818ZM16.5051 7.84932C17.6473 7.58198 18.8166 7.44834 19.9897 7.45109C31.6048 7.45109 38.242 20.7255 38.242 20.7255C37.2348 22.6099 36.0336 24.3839 34.6579 26.0187L16.5051 7.84932Z" stroke="#D3D3D3" stroke-width="3.31861" stroke-linecap="round" stroke-linejoin="round"/>
<path d="M1.7373 2.47321L38.242 38.9779" stroke="#D3D3D3" stroke-width="3.31861" stroke-linecap="round" stroke-linejoin="round"/>
</g>
<defs>
<clipPath id="clip0_332_222">
<rect width="39.8233" height="39.8233" fill="white" transform="translate(0.078125 0.813904)"/>
</clipPath>
</defs>
</svg>
