<svg width="8" height="21" viewBox="0 0 8 21" fill="none" xmlns="http://www.w3.org/2000/svg">
<path d="M0.977383 17.4422H1.77996V11.6452H0.977383C0.534119 11.6452 0.174805 11.2859 0.174805 10.8427V8.92566C0.174805 8.4824 0.534119 8.12308 0.977383 8.12308H5.47182C5.91508 8.12308 6.2744 8.4824 6.2744 8.92566V17.4422H7.07697C7.52024 17.4422 7.87955 17.8015 7.87955 18.2448V20.1618C7.87955 20.605 7.52024 20.9643 7.07697 20.9643H0.977383C0.534119 20.9643 0.174805 20.605 0.174805 20.1618V18.2448C0.174805 17.8015 0.534119 17.4422 0.977383 17.4422ZM4.02718 0.418335C2.43145 0.418335 1.1379 1.71189 1.1379 3.30762C1.1379 4.90334 2.43145 6.1969 4.02718 6.1969C5.6229 6.1969 6.91646 4.90334 6.91646 3.30762C6.91646 1.71189 5.62286 0.418335 4.02718 0.418335Z" fill="#55229E"/>
</svg>
