<svg width="101" height="101" viewBox="0 0 101 101" fill="none" xmlns="http://www.w3.org/2000/svg">
<path d="M92.2561 59.2437C91.08 64.8977 88.7642 70.2529 85.4502 74.9826L85.2451 75.2723C79.686 83.05 71.6794 88.7388 62.5056 91.4292C53.3319 94.1196 43.5209 93.656 34.6417 90.1127C34.4003 90.0157 34.1596 89.9171 33.9196 89.817C31.4416 88.7755 29.0686 87.5 26.8328 86.008C26.4696 85.7656 26.1105 85.518 25.7555 85.2653C25.513 85.0933 25.2712 84.9176 25.0327 84.7387C18.5025 79.8724 13.4996 73.2408 10.6136 65.6254C7.72754 58.01 7.07872 49.7282 8.74361 41.7563C13.5726 18.6952 36.1825 3.91475 59.2436 8.7437C82.3046 13.5727 97.0851 36.1826 92.2561 59.2437Z" fill="white"/>
<path opacity="0.2" d="M38.63 35.5732C36.9106 39.8552 37.8075 44.2463 37.8075 44.2463C37.8075 44.2463 41.4921 41.6949 43.2115 37.4129C44.931 33.1308 44.0341 28.7397 44.0341 28.7397C44.0341 28.7397 40.3495 31.2911 38.63 35.5732Z" fill="black"/>
<path d="M48.4784 59.7286C57.4689 61.6112 66.2833 55.8491 68.1659 46.8586C70.0485 37.8681 64.2864 29.0537 55.2959 27.1711C46.3054 25.2885 37.4909 31.0506 35.6083 40.0411C33.7257 49.0316 39.4878 57.846 48.4784 59.7286Z" fill="#9E616A"/>
<path d="M42.9182 54.582C42.9182 54.582 42.9291 64.6736 42.716 65.691C42.503 66.7085 51.2098 73.3108 51.2098 73.3108L60.1775 73.5956L65.1472 65.0779C65.1472 65.0779 61.6579 56.382 62.297 53.3297L42.9182 54.582Z" fill="#9E616A"/>
<path d="M85.4506 74.9826L85.2455 75.2723C79.6864 83.05 71.6798 88.7388 62.506 91.4292C53.3323 94.1196 43.5213 93.656 34.6421 90.1127C34.4007 90.0157 34.16 89.9171 33.92 89.817C31.442 88.7755 29.069 87.5 26.8332 86.008C26.47 85.7656 26.1109 85.518 25.7559 85.2653C25.5134 85.0933 25.2716 84.9175 25.0331 84.7387C22.8693 83.1267 20.8635 81.3128 19.0426 79.3216L18.2851 73.3199L19.5431 72.7193L22.1309 71.4829L24.8921 70.1642L25.6101 69.8206L36.444 64.6459L37.2436 64.2639L42.8747 61.5744L42.8762 61.5734C42.8762 61.5734 46.3352 71.228 54.4989 70.2822C62.6625 69.3365 64.0231 62.0078 64.0231 62.0078L85.4506 74.9826Z" fill="#55229E"/>
<path d="M40.5164 27.3787C40.5164 27.3787 48.0298 17.2626 57.3949 21.9212C66.7599 26.5798 71.5474 31.6286 71.1664 35.5951C70.7854 39.5616 68.9218 45.2409 68.9218 45.2409C68.9218 45.2409 69.5135 37.0474 62.2615 37.3272C55.0095 37.607 44.5124 34.0601 44.5124 34.0601L39.5428 49.2047C39.5428 49.2047 38.1909 45.9993 35.6766 47.2712C33.1623 48.543 32.9036 29.3813 40.5164 27.3787Z" fill="#2F2E41"/>
<path d="M26.833 86.0078C26.4698 85.7654 26.1107 85.5179 25.7557 85.2651C25.5131 85.0931 25.2714 84.9174 25.0329 84.7385C21.4545 82.0708 18.3157 78.8594 15.7306 75.2209C17.1898 73.9119 18.2848 73.3198 18.2848 73.3198L25.9158 74.9177L26.2542 79.0043L26.833 86.0078Z" fill="#55229E"/>
<path d="M78.9413 72.7455L85.2455 75.2726C82.658 78.8967 79.5188 82.0933 75.9422 84.7461L78.9413 72.7455Z" fill="#55229E"/>
</svg>
