<svg width="12" height="21" viewBox="0 0 12 21" fill="none" xmlns="http://www.w3.org/2000/svg">
<path d="M10.1761 20.4845C9.21044 20.9019 8.20285 20.4445 7.78028 19.3969C7.35126 18.3333 7.75196 17.2536 8.73306 16.8296C9.71426 16.4054 10.7039 16.864 11.1398 17.9447C11.5693 19.0092 11.1729 20.0536 10.1761 20.4845ZM8.32633 14.7361L7.55855 15.068C7.36674 15.1499 7.15222 15.1543 6.95742 15.0803C6.76262 15.0064 6.60173 14.8594 6.50658 14.6686L6.46861 14.5917C5.64248 13.0494 5.54789 11.1749 6.18895 9.02334C6.78282 7.09326 7.02948 5.73585 6.53343 4.5061C5.9599 3.08428 4.7352 2.6389 3.17343 3.28409C2.5677 3.54591 2.37495 3.54174 1.89828 4.03124C1.79458 4.13902 1.67099 4.22407 1.53486 4.28133C1.39873 4.3386 1.25286 4.3669 1.10594 4.36455C0.963908 4.36281 0.823669 4.33149 0.693584 4.27245C0.5635 4.21341 0.446233 4.12785 0.348778 4.02088C0.161027 3.81473 0.0558388 3.54252 0.0544571 3.2592C0.0530754 2.97589 0.155604 2.70259 0.341335 2.49449C1.14256 1.62627 2.10893 0.939406 3.17947 0.477226C6.53504 -0.973222 8.22426 1.16816 8.99727 3.08449C9.75336 4.95888 9.32804 6.69801 8.64466 8.95034C8.07198 10.8219 8.10534 12.2087 8.75587 13.5876C8.80283 13.6918 8.82897 13.8048 8.83269 13.9198C8.83641 14.0348 8.81765 14.1493 8.77754 14.2566C8.73742 14.3639 8.67677 14.4616 8.59924 14.544C8.5217 14.6264 8.42888 14.6917 8.32634 14.7361L8.32633 14.7361Z" fill="black"/>
</svg>
