<svg width="57" height="64" viewBox="0 0 57 64" fill="none" xmlns="http://www.w3.org/2000/svg">
<path d="M43.2368 52.0917C41.8807 45.5066 40.1856 43.3111 40.1856 43.3111L39.538 42.8067L38.7593 42.1992L38.763 42.1211L38.5783 42.058L38.5349 42.0242L38.4638 41.9694L38.4524 41.9817L38.4282 42.0068L34.9042 40.8038L30.4334 39.2787L28.3631 36.5762C28.0259 36.136 27.5919 35.7803 27.0949 35.5368C26.5979 35.2934 26.0515 35.1688 25.4986 35.173L18.8868 35.2221C17.9928 35.2287 17.1336 35.571 16.4782 36.1816L12.1323 40.23L5.36071 43.4779L5.34928 43.4664L5.27817 43.5175L4.23189 44.0199L4.27507 44.2456L3.62749 44.7149C3.62749 44.7149 1.93236 46.7578 0.576254 52.8851C0.231276 54.4442 0.0614649 57.7887 0.000172245 61.91C-0.00290648 62.1184 0.0353144 62.3255 0.112612 62.519C0.189909 62.7125 0.304741 62.8886 0.45043 63.0372C0.59612 63.1857 0.76976 63.3037 0.961255 63.3842C1.15275 63.4648 1.35828 63.5063 1.56589 63.5064H37.7345V63.5064H42.2488C42.4563 63.5063 42.6617 63.4648 42.8531 63.3843C43.0444 63.3039 43.218 63.186 43.3636 63.0377C43.5093 62.8893 43.6242 62.7134 43.7016 62.5201C43.779 62.3267 43.8174 62.1199 43.8146 61.9116C43.7547 57.427 43.585 53.7825 43.2368 52.0917Z" fill="#55229E"/>
<path d="M23.3679 32.5438C28.2076 32.5438 32.1309 28.6859 32.1309 23.927C32.1309 19.168 28.2076 15.3101 23.3679 15.3101C18.5283 15.3101 14.605 19.168 14.605 23.927C14.605 28.6859 18.5283 32.5438 23.3679 32.5438Z" fill="#9E616A"/>
<path d="M14.2287 15.6457C14.6703 15.2938 15.1864 14.97 15.7509 14.9882C16.3154 15.0064 16.8879 15.5158 16.771 16.0678C17.8079 14.2336 19.4584 12.8229 21.4327 12.0833C23.4071 11.3437 25.5791 11.3224 27.5676 12.0233C28.9707 12.5179 30.3466 13.5073 30.6689 14.9584C30.7517 15.3309 30.7694 15.7394 31.0023 16.0418C31.2958 16.4232 31.8574 16.5095 32.3199 16.3753C32.3245 16.374 32.3291 16.3726 32.3337 16.3713C32.4119 16.3446 32.4962 16.342 32.5758 16.3637C32.6555 16.3855 32.7267 16.4306 32.7804 16.4933C32.8341 16.5559 32.8677 16.6332 32.8769 16.7152C32.8862 16.7971 32.8706 16.88 32.8322 16.953L32.4352 17.6927C32.9356 17.8041 33.4556 17.7931 33.9509 17.6605C34.0331 17.6389 34.1201 17.6433 34.1997 17.6731C34.2794 17.7028 34.3479 17.7565 34.3959 17.8267C34.4438 17.8969 34.4688 17.9801 34.4675 18.0651C34.4662 18.1501 34.4386 18.2325 34.3885 18.3012C33.0794 20.0968 30.8924 21.2563 28.6605 21.2426C27.0743 21.233 25.4717 20.6868 23.9279 21.0512C23.3307 21.1922 22.7727 21.465 22.2947 21.8495C21.8168 22.2341 21.4311 22.7207 21.1659 23.2735C20.9007 23.8264 20.7628 24.4316 20.7623 25.0447C20.7618 25.6578 20.8987 26.2632 21.163 26.8165C20.6887 26.2983 19.7719 26.421 19.2868 26.9291C18.8017 27.4372 18.6761 28.1956 18.725 28.8961C18.7997 29.9675 19.2199 30.977 19.6629 31.9596C15.9491 31.8428 12.4365 29.2401 11.2541 25.72C10.0668 22.1852 11.3112 17.9709 14.2287 15.6457Z" fill="#2F2E41"/>
<path d="M44.0347 21.5985C43.0691 22.0159 42.0615 21.5585 41.6389 20.5109C41.2099 19.4473 41.6106 18.3677 42.5917 17.9436C43.5729 17.5194 44.5626 17.978 44.9985 19.0587C45.4279 20.1233 45.0316 21.1676 44.0347 21.5985ZM42.185 15.8501L41.4172 16.182C41.2254 16.2639 41.0109 16.2683 40.8161 16.1943C40.6213 16.1204 40.4604 15.9734 40.3652 15.7826L40.3273 15.7057C39.5011 14.1634 39.4065 12.2889 40.0476 10.1374C40.6415 8.20728 40.8881 6.84986 40.3921 5.62011C39.8185 4.1983 38.5938 3.75291 37.0321 4.3981C36.4263 4.65993 36.2336 4.65575 35.7569 5.14526C35.6532 5.25303 35.5296 5.33809 35.3935 5.39535C35.2574 5.45261 35.1115 5.48091 34.9646 5.47856C34.8226 5.47683 34.6823 5.44551 34.5522 5.38646C34.4221 5.32742 34.3049 5.24186 34.2074 5.13489C34.0197 4.92875 33.9145 4.65653 33.9131 4.37322C33.9117 4.0899 34.0142 3.8166 34.2 3.6085C35.0012 2.74029 35.9676 2.05342 37.0381 1.59124C40.3937 0.140792 42.0829 2.28217 42.8559 4.1985C43.612 6.0729 43.1867 7.81202 42.5033 10.0644C41.9306 11.9359 41.964 13.3227 42.6145 14.7016C42.6615 14.8059 42.6876 14.9189 42.6913 15.0338C42.6951 15.1488 42.6763 15.2633 42.6362 15.3706C42.5961 15.4779 42.5354 15.5756 42.4579 15.658C42.3803 15.7404 42.2875 15.8058 42.185 15.8501L42.185 15.8501Z" fill="black"/>
<path d="M55.1758 20.4845C54.2102 20.9019 53.2026 20.4445 52.78 19.3969C52.351 18.3333 52.7517 17.2536 53.7328 16.8296C54.714 16.4054 55.7037 16.864 56.1396 17.9447C56.569 19.0092 56.1727 20.0536 55.1758 20.4845ZM53.3261 14.7361L52.5583 15.068C52.3665 15.1499 52.152 15.1543 51.9572 15.0803C51.7624 15.0064 51.6015 14.8594 51.5063 14.6686L51.4684 14.5917C50.6422 13.0494 50.5476 11.1749 51.1887 9.02334C51.7826 7.09326 52.0292 5.73585 51.5332 4.5061C50.9597 3.08428 49.735 2.6389 48.1732 3.28409C47.5675 3.54591 47.3747 3.54174 46.898 4.03124C46.7943 4.13902 46.6707 4.22407 46.5346 4.28133C46.3985 4.3386 46.2526 4.3669 46.1057 4.36455C45.9637 4.36281 45.8234 4.33149 45.6933 4.27245C45.5633 4.2134 45.446 4.12785 45.3485 4.02088C45.1608 3.81473 45.0556 3.54252 45.0542 3.2592C45.0528 2.97589 45.1554 2.70259 45.3411 2.49449C46.1423 1.62627 47.1087 0.939406 48.1792 0.477226C51.5348 -0.973222 53.224 1.16816 53.997 3.08449C54.7531 4.95888 54.3278 6.69801 53.6444 8.95034C53.0717 10.8219 53.1051 12.2087 53.7556 13.5876C53.8026 13.6918 53.8287 13.8048 53.8324 13.9198C53.8362 14.0348 53.8174 14.1493 53.7773 14.2566C53.7372 14.3639 53.6765 14.4616 53.599 14.544C53.5215 14.6264 53.4286 14.6917 53.3261 14.7361L53.3261 14.7361Z" fill="black"/>
</svg>
