<svg width="955" height="1117" viewBox="0 0 955 1117" fill="none" xmlns="http://www.w3.org/2000/svg">
<rect width="884" height="1117" fill="#55229E" fill-opacity="0.63"/>
<path d="M955 47.5C955 114.603 900.603 169 833.5 169C766.397 169 712 114.603 712 47.5C712 -19.6026 766.397 -74 833.5 -74C900.603 -74 955 -19.6026 955 47.5ZM729.306 47.5C729.306 105.045 775.955 151.694 833.5 151.694C891.045 151.694 937.694 105.045 937.694 47.5C937.694 -10.045 891.045 -56.6945 833.5 -56.6945C775.955 -56.6945 729.306 -10.045 729.306 47.5Z" fill="white" fill-opacity="0.3"/>
<path d="M928 47.5C928 99.6909 885.691 142 833.5 142C781.309 142 739 99.6909 739 47.5C739 -4.69091 781.309 -47 833.5 -47C885.691 -47 928 -4.69091 928 47.5ZM756.46 47.5C756.46 90.0481 790.952 124.54 833.5 124.54C876.048 124.54 910.54 90.0481 910.54 47.5C910.54 4.95189 876.048 -29.5402 833.5 -29.5402C790.952 -29.5402 756.46 4.95189 756.46 47.5Z" fill="white" fill-opacity="0.3"/>
<path d="M955 1067.5C955 1134.6 900.603 1189 833.5 1189C766.397 1189 712 1134.6 712 1067.5C712 1000.4 766.397 946 833.5 946C900.603 946 955 1000.4 955 1067.5ZM729.306 1067.5C729.306 1125.05 775.955 1171.69 833.5 1171.69C891.045 1171.69 937.694 1125.05 937.694 1067.5C937.694 1009.95 891.045 963.306 833.5 963.306C775.955 963.306 729.306 1009.95 729.306 1067.5Z" fill="white" fill-opacity="0.3"/>
<path d="M928 1067.5C928 1119.69 885.691 1162 833.5 1162C781.309 1162 739 1119.69 739 1067.5C739 1015.31 781.309 973 833.5 973C885.691 973 928 1015.31 928 1067.5ZM756.46 1067.5C756.46 1110.05 790.952 1144.54 833.5 1144.54C876.048 1144.54 910.54 1110.05 910.54 1067.5C910.54 1024.95 876.048 990.46 833.5 990.46C790.952 990.46 756.46 1024.95 756.46 1067.5Z" fill="white" fill-opacity="0.3"/>
<path d="M177 1067.5C177 1134.6 122.603 1189 55.5 1189C-11.6026 1189 -66 1134.6 -66 1067.5C-66 1000.4 -11.6026 946 55.5 946C122.603 946 177 1000.4 177 1067.5ZM-48.6945 1067.5C-48.6945 1125.05 -2.04503 1171.69 55.5 1171.69C113.045 1171.69 159.694 1125.05 159.694 1067.5C159.694 1009.95 113.045 963.306 55.5 963.306C-2.04503 963.306 -48.6945 1009.95 -48.6945 1067.5Z" fill="white" fill-opacity="0.3"/>
<path d="M150 1067.5C150 1119.69 107.691 1162 55.5 1162C3.30909 1162 -39 1119.69 -39 1067.5C-39 1015.31 3.30909 973 55.5 973C107.691 973 150 1015.31 150 1067.5ZM-21.5402 1067.5C-21.5402 1110.05 12.9519 1144.54 55.5 1144.54C98.0481 1144.54 132.54 1110.05 132.54 1067.5C132.54 1024.95 98.0481 990.46 55.5 990.46C12.9519 990.46 -21.5402 1024.95 -21.5402 1067.5Z" fill="white" fill-opacity="0.3"/>
<path d="M674.969 900.069H177.001V389.141C177.001 280.437 265.437 192 374.141 192H477.828C586.532 192 674.969 280.437 674.969 389.141V900.069Z" fill="#F2F2F2"/>
<path d="M570.059 389.143V898.848H178.224L178.224 389.143L178.224 389.139C178.116 347.748 191.223 307.402 215.637 273.976C216.54 272.745 217.436 271.536 218.358 270.344L218.363 270.337C230.172 254.849 244.226 241.208 260.06 229.865L260.068 229.86C260.96 229.211 261.856 228.572 262.767 227.933C276.016 218.765 290.347 211.27 305.435 205.62L305.439 205.618C306.337 205.278 307.247 204.938 308.155 204.613C321.801 199.743 335.947 196.408 350.331 194.668L350.341 194.666L350.35 194.665C351.224 194.546 352.126 194.452 353.051 194.355L353.054 194.355C367.073 192.856 381.212 192.856 395.231 194.355L395.234 194.355L395.252 194.357C396.168 194.453 397.064 194.546 397.944 194.666L397.953 194.668L397.962 194.669C412.343 196.409 426.485 199.745 440.128 204.614C441.036 204.938 441.946 205.278 442.846 205.619L442.851 205.62C457.753 211.2 471.916 218.583 485.024 227.606L485.025 227.606C485.935 228.231 486.846 228.87 487.745 229.51C496.621 235.846 504.958 242.904 512.671 250.614C518.856 256.797 524.62 263.387 529.923 270.342L529.928 270.348C530.847 271.536 531.742 272.744 532.644 273.974C557.059 307.4 570.167 347.747 570.059 389.139V389.143Z" fill="#CCCCCC" stroke="#55229E" stroke-width="2.44697"/>
<path d="M539.22 671.55C551.276 671.55 561.049 661.777 561.049 649.721C561.049 637.666 551.276 627.893 539.22 627.893C527.165 627.893 517.392 637.666 517.392 649.721C517.392 661.777 527.165 671.55 539.22 671.55Z" fill="#55229E"/>
<path d="M634.175 884.767H617.449L609.491 820.252L634.178 820.253L634.175 884.767Z" fill="#FFB8B8"/>
<path d="M605.501 879.987H637.758V900.297H585.191C585.191 897.63 585.716 894.989 586.737 892.525C587.758 890.061 589.254 887.822 591.14 885.936C593.026 884.05 595.265 882.554 597.729 881.533C600.193 880.512 602.834 879.987 605.501 879.987Z" fill="#55229E"/>
<path d="M717.397 884.767H700.671L692.713 820.252L717.4 820.253L717.397 884.767Z" fill="#FFB8B8"/>
<path d="M688.723 879.987H720.98V900.297H668.413C668.413 897.63 668.938 894.989 669.959 892.525C670.98 890.061 672.476 887.822 674.362 885.936C676.248 884.05 678.487 882.554 680.951 881.533C683.415 880.512 686.056 879.987 688.723 879.987Z" fill="#55229E"/>
<path d="M550.269 654.046C549.066 652.273 548.266 650.258 547.926 648.142C547.585 646.027 547.713 643.863 548.3 641.802C548.887 639.741 549.918 637.834 551.321 636.215C552.725 634.596 554.466 633.305 556.423 632.431L613.281 475.719L641.259 490.988L576.339 640.747C577.588 644.132 577.552 647.856 576.239 651.216C574.925 654.576 572.424 657.337 569.211 658.976C565.997 660.615 562.294 661.019 558.803 660.11C555.312 659.201 552.276 657.044 550.269 654.046Z" fill="#FFB8B8"/>
<path d="M708.853 683.492C706.994 682.426 705.391 680.966 704.158 679.214C702.924 677.462 702.09 675.461 701.714 673.351C701.338 671.242 701.428 669.076 701.98 667.005C702.531 664.935 703.53 663.011 704.906 661.368L687.292 495.593L719.131 497.048L726.451 660.109C729.058 662.603 730.659 665.966 730.952 669.562C731.244 673.157 730.207 676.735 728.038 679.617C725.869 682.5 722.717 684.486 719.181 685.2C715.645 685.914 711.97 685.307 708.853 683.492Z" fill="#FFB8B8"/>
<path d="M658.059 446.693C676.565 446.693 691.567 431.691 691.567 413.184C691.567 394.678 676.565 379.676 658.059 379.676C639.553 379.676 624.551 394.678 624.551 413.184C624.551 431.691 639.553 446.693 658.059 446.693Z" fill="#FFB8B8"/>
<path d="M708.639 645.789H607.617L607.738 645.003C607.92 643.828 625.743 527.075 612.598 488.879C611.279 485.125 611.395 481.016 612.923 477.343C614.452 473.67 617.285 470.692 620.878 468.982H620.878C639.667 460.135 675.733 449.239 706.174 475.68C710.654 479.635 714.152 484.578 716.391 490.117C718.631 495.657 719.552 501.642 719.08 507.599L708.639 645.789Z" fill="#55229E"/>
<path d="M408.931 338.663H406.202V753.409H408.931V338.663Z" fill="#554CE4"/>
<path d="M627.019 544.331L581.538 535.104L602.857 484.584C604.133 479.691 607.297 475.504 611.656 472.941C616.015 470.378 621.213 469.648 626.109 470.912C631.005 472.176 635.2 475.33 637.774 479.683C640.347 484.036 641.089 489.232 639.837 494.131L627.019 544.331Z" fill="#55229E"/>
<path d="M685.27 561.461L682.536 498.783C680.462 487.001 687.207 475.862 697.58 474.042C707.956 472.228 718.088 480.4 720.171 492.269L730.448 550.835L685.27 561.461Z" fill="#55229E"/>
<path d="M705.278 638.287C721.533 700.194 723.306 778.904 718.921 864.76L697.092 862.032L657.528 698.316L635.699 864.76L611.142 863.396C603.805 773.312 596.662 695.976 608.413 645.109L705.278 638.287Z" fill="#2F2E41"/>
<path d="M680.138 439.08C673.886 445.739 662.277 442.164 661.463 433.067C661.399 432.361 661.403 431.65 661.476 430.945C661.897 426.915 664.225 423.257 663.667 419.003C663.541 417.944 663.147 416.935 662.521 416.071C657.54 409.4 645.846 419.054 641.145 413.016C638.262 409.313 641.651 403.483 639.439 399.345C636.519 393.883 627.871 396.577 622.448 393.586C616.414 390.258 616.775 381 620.747 375.369C625.591 368.502 634.084 364.837 642.471 364.309C650.858 363.781 659.188 366.048 667.018 369.1C675.915 372.567 684.737 377.358 690.212 385.181C696.87 394.695 697.511 407.485 694.181 418.609C692.155 425.376 685.242 433.642 680.138 439.08Z" fill="#2F2E41"/>
<path d="M462.821 752.045H285.462C283.127 752.057 280.881 751.143 279.219 749.502C277.556 747.861 276.613 745.628 276.594 743.292V347.415C276.613 345.08 277.556 342.846 279.219 341.206C280.881 339.565 283.127 338.65 285.462 338.663H462.821C465.157 338.65 467.402 339.565 469.064 341.206C470.727 342.846 471.671 345.08 471.689 347.415V743.292C471.671 745.628 470.727 747.861 469.064 749.502C467.402 751.143 465.157 752.057 462.821 752.045Z" fill="white"/>
<path d="M471.689 466.755H276.594V469.483H471.689V466.755Z" fill="#55229E"/>
<path d="M472.371 622.435H277.276V625.164H472.371V622.435Z" fill="#55229E"/>
<path d="M340.716 338.663H337.987V753.409H340.716V338.663Z" fill="#55229E"/>
<path d="M165 47.5C165 114.603 110.603 169 43.5 169C-23.6026 169 -78 114.603 -78 47.5C-78 -19.6026 -23.6026 -74 43.5 -74C110.603 -74 165 -19.6026 165 47.5ZM-60.6945 47.5C-60.6945 105.045 -14.045 151.694 43.5 151.694C101.045 151.694 147.694 105.045 147.694 47.5C147.694 -10.045 101.045 -56.6945 43.5 -56.6945C-14.045 -56.6945 -60.6945 -10.045 -60.6945 47.5Z" fill="white" fill-opacity="0.3"/>
<path d="M138 47.5C138 99.6909 95.6909 142 43.5 142C-8.69091 142 -51 99.6909 -51 47.5C-51 -4.69091 -8.69091 -47 43.5 -47C95.6909 -47 138 -4.69091 138 47.5ZM-33.5402 47.5C-33.5402 90.0481 0.951893 124.54 43.5 124.54C86.0481 124.54 120.54 90.0481 120.54 47.5C120.54 4.95189 86.0481 -29.5402 43.5 -29.5402C0.951893 -29.5402 -33.5402 4.95189 -33.5402 47.5Z" fill="white" fill-opacity="0.3"/>
</svg>
