<svg width="58" height="58" viewBox="0 0 58 58" fill="none" xmlns="http://www.w3.org/2000/svg">
<path d="M51.6386 57.1294H6.97437C3.61059 57.1294 0.883789 54.4026 0.883789 51.0388V6.37458C0.883789 3.0108 3.61059 0.283997 6.97437 0.283997H51.6386C55.0024 0.283997 57.7292 3.0108 57.7292 6.37458V51.0388C57.7292 54.4026 55.0024 57.1294 51.6386 57.1294ZM25.6666 44.687L49.0138 21.3398C49.8066 20.547 49.8066 19.2615 49.0138 18.4687L46.1428 15.5976C45.35 14.8048 44.0645 14.8047 43.2716 15.5976L24.231 34.638L15.3414 25.7485C14.5486 24.9557 13.2632 24.9557 12.4702 25.7485L9.59916 28.6195C8.80637 29.4123 8.80637 30.6978 9.59916 31.4906L22.7954 44.6869C23.5883 45.4799 24.8737 45.4799 25.6666 44.687Z" fill="#55229E"/>
</svg>
