<svg width="1629" height="1103" viewBox="0 0 1629 1103" fill="none" xmlns="http://www.w3.org/2000/svg">
<path d="M438 37C438 226.986 283.986 381 94 381C-95.9859 381 -250 226.986 -250 37C-250 -152.986 -95.9859 -307 94 -307C283.986 -307 438 -152.986 438 37ZM-201.003 37C-201.003 199.926 -68.9258 332.003 94 332.003C256.926 332.003 389.003 199.926 389.003 37C389.003 -125.926 256.926 -258.003 94 -258.003C-68.9258 -258.003 -201.003 -125.926 -201.003 37Z" fill="#55229E" fill-opacity="0.63"/>
<path d="M361.555 36.9998C361.555 184.767 241.766 304.555 93.9992 304.555C-53.7677 304.555 -173.556 184.767 -173.556 36.9998C-173.556 -110.767 -53.7677 -230.556 93.9992 -230.556C241.766 -230.556 361.555 -110.767 361.555 36.9998ZM-124.123 36.9998C-124.123 157.465 -26.4662 255.122 93.9992 255.122C214.465 255.122 312.121 157.465 312.121 36.9998C312.121 -83.4656 214.465 -181.122 93.9992 -181.122C-26.4662 -181.122 -124.123 -83.4656 -124.123 36.9998Z" fill="#55229E" fill-opacity="0.63"/>
<path d="M259.437 515.423C256.476 512.836 253.046 510.994 249.333 509.61C237.546 505.217 222.882 505.436 211.094 501.043C208.138 499.941 205.364 498.55 202.86 496.724C202.579 496.519 202.27 496.356 201.944 496.235C200.297 495.621 198.243 496.07 197.39 497.437L182.749 520.903C182.166 521.837 182.306 522.981 183.193 523.754C186.154 526.342 189.583 528.184 193.297 529.568C205.084 533.961 219.749 533.742 231.537 538.135C234.493 539.237 237.267 540.627 239.771 542.454C240.052 542.659 240.361 542.822 240.687 542.943C242.334 543.557 244.388 543.108 245.241 541.74L259.881 518.275C260.464 517.34 260.324 516.197 259.437 515.423ZM200.996 500.733C202.689 501.823 204.582 502.759 206.586 503.63C204.667 505.594 201.172 506.311 198.205 505.205L200.996 500.733ZM187.844 521.813L190.049 518.279C193.338 519.504 194.741 522.513 193.312 525.092C191.24 524.155 189.432 523.071 187.844 521.813ZM216.885 526.69C212.656 525.114 211.212 520.657 213.659 516.736C216.105 512.814 221.517 510.913 225.745 512.488C229.973 514.064 231.418 518.521 228.971 522.442C226.524 526.365 221.112 528.265 216.885 526.69ZM241.634 538.445C240.16 537.496 238.533 536.665 236.825 535.884C238.59 534.164 241.574 533.471 244.298 534.176L241.634 538.445ZM252.53 520.982C249.754 519.591 248.65 516.828 250.029 514.439C251.799 515.296 253.387 516.258 254.786 517.365L252.53 520.982Z" fill="#55229E" fill-opacity="0.11"/>
<path d="M1627.49 633.3C1624.53 630.713 1621.1 628.871 1617.39 627.487C1605.6 623.093 1590.94 623.312 1579.15 618.92C1576.19 617.818 1573.42 616.427 1570.92 614.6C1570.64 614.395 1570.33 614.233 1570 614.111C1568.35 613.498 1566.3 613.946 1565.45 615.314L1550.81 638.78C1550.22 639.714 1550.36 640.857 1551.25 641.631C1554.21 644.218 1557.64 646.061 1561.35 647.445C1573.14 651.837 1587.81 651.619 1599.59 656.012C1602.55 657.113 1605.32 658.504 1607.83 660.331C1608.11 660.536 1608.42 660.698 1608.74 660.82C1610.39 661.433 1612.44 660.985 1613.3 659.617L1627.94 636.152C1628.52 635.217 1628.38 634.074 1627.49 633.3ZM1569.05 618.609C1570.75 619.7 1572.64 620.636 1574.64 621.507C1572.72 623.471 1569.23 624.188 1566.26 623.082L1569.05 618.609ZM1555.9 639.689L1558.11 636.155C1561.39 637.381 1562.8 640.39 1561.37 642.969C1559.3 642.032 1557.49 640.948 1555.9 639.689ZM1584.94 644.566C1580.71 642.99 1579.27 638.533 1581.72 634.612C1584.16 630.691 1589.57 628.789 1593.8 630.365C1598.03 631.941 1599.47 636.397 1597.03 640.319C1594.58 644.241 1589.17 646.142 1584.94 644.566ZM1609.69 656.322C1608.22 655.372 1606.59 654.542 1604.88 653.76C1606.65 652.041 1609.63 651.348 1612.35 652.053L1609.69 656.322ZM1620.59 638.858C1617.81 637.467 1616.71 634.705 1618.09 632.315C1619.86 633.173 1621.44 634.135 1622.84 635.242L1620.59 638.858Z" fill="#55229E" fill-opacity="0.11"/>
<path d="M1540.83 470.477C1537.87 467.89 1534.44 466.048 1530.72 464.664C1518.94 460.27 1504.27 460.49 1492.49 456.097C1489.53 454.995 1486.76 453.604 1484.25 451.778C1483.97 451.572 1483.66 451.41 1483.34 451.289C1481.69 450.675 1479.63 451.124 1478.78 452.491L1464.14 475.957C1463.56 476.891 1463.7 478.035 1464.58 478.808C1467.55 481.396 1470.97 483.238 1474.69 484.622C1486.48 489.015 1501.14 488.796 1512.93 493.189C1515.89 494.29 1518.66 495.681 1521.16 497.508C1521.44 497.713 1521.75 497.876 1522.08 497.997C1523.73 498.611 1525.78 498.162 1526.63 496.794L1541.27 473.329C1541.86 472.394 1541.72 471.251 1540.83 470.477ZM1482.39 455.787C1484.08 456.877 1485.97 457.813 1487.98 458.684C1486.06 460.648 1482.56 461.365 1479.6 460.259L1482.39 455.787ZM1469.24 476.867L1471.44 473.333C1474.73 474.558 1476.13 477.567 1474.7 480.146C1472.63 479.209 1470.82 478.125 1469.24 476.867ZM1498.28 481.744C1494.05 480.167 1492.6 475.711 1495.05 471.79C1497.5 467.868 1502.91 465.967 1507.14 467.542C1511.36 469.118 1512.81 473.575 1510.36 477.496C1507.92 481.418 1502.5 483.319 1498.28 481.744ZM1523.03 493.499C1521.55 492.55 1519.92 491.719 1518.22 490.938C1519.98 489.218 1522.97 488.525 1525.69 489.23L1523.03 493.499ZM1533.92 476.035C1531.15 474.645 1530.04 471.882 1531.42 469.492C1533.19 470.35 1534.78 471.312 1536.18 472.419L1533.92 476.035Z" fill="#55229E" fill-opacity="0.11"/>
<path d="M1470.83 290.477C1467.87 287.89 1464.44 286.048 1460.72 284.664C1448.94 280.27 1434.27 280.49 1422.49 276.097C1419.53 274.995 1416.76 273.604 1414.25 271.778C1413.97 271.572 1413.66 271.41 1413.34 271.289C1411.69 270.675 1409.63 271.124 1408.78 272.491L1394.14 295.957C1393.56 296.891 1393.7 298.035 1394.58 298.808C1397.55 301.396 1400.97 303.238 1404.69 304.622C1416.48 309.015 1431.14 308.796 1442.93 313.189C1445.89 314.29 1448.66 315.681 1451.16 317.508C1451.44 317.713 1451.75 317.876 1452.08 317.997C1453.73 318.611 1455.78 318.162 1456.63 316.794L1471.27 293.329C1471.86 292.394 1471.72 291.251 1470.83 290.477ZM1412.39 275.787C1414.08 276.877 1415.97 277.813 1417.98 278.684C1416.06 280.648 1412.56 281.365 1409.6 280.259L1412.39 275.787ZM1399.24 296.867L1401.44 293.333C1404.73 294.558 1406.13 297.567 1404.7 300.146C1402.63 299.209 1400.82 298.125 1399.24 296.867ZM1428.28 301.744C1424.05 300.167 1422.6 295.711 1425.05 291.79C1427.5 287.868 1432.91 285.967 1437.14 287.542C1441.36 289.118 1442.81 293.575 1440.36 297.496C1437.92 301.418 1432.5 303.319 1428.28 301.744ZM1453.03 313.499C1451.55 312.55 1449.92 311.719 1448.22 310.938C1449.98 309.218 1452.97 308.525 1455.69 309.23L1453.03 313.499ZM1463.92 296.035C1461.15 294.645 1460.04 291.882 1461.42 289.492C1463.19 290.35 1464.78 291.312 1466.18 292.419L1463.92 296.035Z" fill="#55229E" fill-opacity="0.11"/>
<path d="M1620.83 220.477C1617.87 217.89 1614.44 216.048 1610.72 214.664C1598.94 210.27 1584.27 210.49 1572.49 206.097C1569.53 204.995 1566.76 203.604 1564.25 201.778C1563.97 201.572 1563.66 201.41 1563.34 201.289C1561.69 200.675 1559.63 201.124 1558.78 202.491L1544.14 225.957C1543.56 226.891 1543.7 228.035 1544.58 228.808C1547.55 231.396 1550.97 233.238 1554.69 234.622C1566.48 239.015 1581.14 238.796 1592.93 243.189C1595.89 244.29 1598.66 245.681 1601.16 247.508C1601.44 247.713 1601.75 247.876 1602.08 247.997C1603.73 248.611 1605.78 248.162 1606.63 246.794L1621.27 223.329C1621.86 222.394 1621.72 221.251 1620.83 220.477ZM1562.39 205.787C1564.08 206.877 1565.97 207.813 1567.98 208.684C1566.06 210.648 1562.56 211.365 1559.6 210.259L1562.39 205.787ZM1549.24 226.867L1551.44 223.333C1554.73 224.558 1556.13 227.567 1554.7 230.146C1552.63 229.209 1550.82 228.125 1549.24 226.867ZM1578.28 231.744C1574.05 230.167 1572.6 225.711 1575.05 221.79C1577.5 217.868 1582.91 215.967 1587.14 217.542C1591.36 219.118 1592.81 223.575 1590.36 227.496C1587.92 231.418 1582.5 233.319 1578.28 231.744ZM1603.03 243.499C1601.55 242.55 1599.92 241.719 1598.22 240.938C1599.98 239.218 1602.97 238.525 1605.69 239.23L1603.03 243.499ZM1613.92 226.035C1611.15 224.645 1610.04 221.882 1611.42 219.492C1613.19 220.35 1614.78 221.312 1616.18 222.419L1613.92 226.035Z" fill="#55229E" fill-opacity="0.11"/>
<path d="M623.085 60.815C620.123 58.2281 616.694 56.3858 612.981 55.002C601.193 50.6084 586.529 50.8275 574.741 46.4346C571.785 45.3329 569.012 43.942 566.508 42.1155C566.226 41.9104 565.917 41.7478 565.592 41.6265C563.945 41.0127 561.891 41.4615 561.037 42.8291L546.397 66.295C545.814 67.2292 545.953 68.3724 546.84 69.1459C549.801 71.7335 553.231 73.5759 556.944 74.9597C568.732 79.3526 583.397 79.1338 595.185 83.5267C598.141 84.6283 600.914 86.0193 603.418 87.8458C603.7 88.0509 604.009 88.2135 604.334 88.3348C605.981 88.9486 608.035 88.4998 608.889 87.1322L623.529 63.667C624.111 62.7317 623.971 61.5893 623.085 60.815ZM564.643 46.1246C566.336 47.215 568.229 48.1511 570.234 49.022C568.315 50.9861 564.819 51.7029 561.853 50.5972L564.643 46.1246ZM551.491 67.2044L553.696 63.6704C556.985 64.8962 558.388 67.9051 556.96 70.4841C554.887 69.5466 553.079 68.4627 551.491 67.2044ZM580.532 72.0814C576.303 70.5054 574.86 66.0485 577.306 62.1276C579.753 58.206 585.164 56.3046 589.392 57.8803C593.621 59.456 595.065 63.9125 592.619 67.834C590.171 71.7564 584.759 73.6567 580.532 72.0814ZM605.281 83.8371C603.807 82.8875 602.18 82.0568 600.472 81.2755C602.238 79.5558 605.221 78.8628 607.945 79.5678L605.281 83.8371ZM616.177 66.3734C613.401 64.9825 612.298 62.22 613.677 59.8304C615.446 60.6878 617.034 61.6497 618.433 62.7572L616.177 66.3734Z" fill="#55229E" fill-opacity="0.11"/>
<path d="M279.085 65.815C276.123 63.2281 272.694 61.3858 268.98 60.002C257.193 55.6084 242.529 55.8275 230.741 51.4346C227.785 50.3329 225.011 48.942 222.507 47.1155C222.226 46.9104 221.917 46.7478 221.592 46.6265C219.945 46.0127 217.89 46.4615 217.037 47.8291L202.396 71.295C201.814 72.2292 201.953 73.3724 202.84 74.1459C205.801 76.7335 209.231 78.5759 212.944 79.9597C224.732 84.3526 239.397 84.1338 251.184 88.5267C254.141 89.6283 256.914 91.0193 259.418 92.8458C259.7 93.0509 260.009 93.2135 260.334 93.3348C261.981 93.9486 264.035 93.4998 264.888 92.1322L279.529 68.667C280.111 67.7317 279.971 66.5893 279.085 65.815ZM220.643 51.1246C222.336 52.215 224.229 53.1511 226.233 54.022C224.314 55.9861 220.819 56.7029 217.852 55.5972L220.643 51.1246ZM207.491 72.2044L209.696 68.6704C212.985 69.8962 214.388 72.9051 212.96 75.4841C210.887 74.5466 209.079 73.4627 207.491 72.2044ZM236.532 77.0814C232.303 75.5054 230.86 71.0485 233.306 67.1276C235.753 63.206 241.164 61.3046 245.392 62.8803C249.62 64.456 251.065 68.9125 248.618 72.834C246.171 76.7564 240.759 78.6567 236.532 77.0814ZM261.281 88.8371C259.807 87.8875 258.18 87.0568 256.472 86.2755C258.237 84.5558 261.221 83.8628 263.945 84.5678L261.281 88.8371ZM272.177 71.3734C269.401 69.9825 268.297 67.22 269.676 64.8304C271.446 65.6878 273.034 66.6497 274.433 67.7572L272.177 71.3734Z" fill="#55229E" fill-opacity="0.11"/>
<path d="M953.085 60.815C950.123 58.2281 946.694 56.3858 942.98 55.002C931.193 50.6084 916.529 50.8275 904.741 46.4346C901.785 45.3329 899.011 43.942 896.507 42.1155C896.226 41.9104 895.917 41.7478 895.592 41.6265C893.945 41.0127 891.89 41.4615 891.037 42.8291L876.396 66.295C875.814 67.2292 875.953 68.3724 876.84 69.1459C879.801 71.7335 883.231 73.5759 886.944 74.9597C898.732 79.3526 913.397 79.1338 925.184 83.5267C928.141 84.6283 930.914 86.0193 933.418 87.8458C933.7 88.0509 934.009 88.2135 934.334 88.3348C935.981 88.9486 938.035 88.4998 938.888 87.1322L953.529 63.667C954.111 62.7317 953.971 61.5893 953.085 60.815ZM894.643 46.1246C896.336 47.215 898.229 48.1511 900.233 49.022C898.314 50.9861 894.819 51.7029 891.852 50.5972L894.643 46.1246ZM881.491 67.2044L883.696 63.6704C886.985 64.8962 888.388 67.9051 886.96 70.4841C884.887 69.5466 883.079 68.4627 881.491 67.2044ZM910.532 72.0814C906.303 70.5054 904.86 66.0485 907.306 62.1276C909.753 58.206 915.164 56.3046 919.392 57.8803C923.62 59.456 925.065 63.9125 922.618 67.834C920.171 71.7564 914.759 73.6567 910.532 72.0814ZM935.281 83.8371C933.807 82.8875 932.18 82.0568 930.472 81.2755C932.237 79.5558 935.221 78.8628 937.945 79.5678L935.281 83.8371ZM946.177 66.3734C943.401 64.9825 942.297 62.22 943.676 59.8304C945.446 60.6878 947.034 61.6497 948.433 62.7572L946.177 66.3734Z" fill="#55229E" fill-opacity="0.11"/>
<path d="M1283.08 60.815C1280.12 58.2281 1276.69 56.3858 1272.98 55.002C1261.19 50.6084 1246.53 50.8275 1234.74 46.4346C1231.78 45.3329 1229.01 43.942 1226.51 42.1155C1226.23 41.9104 1225.92 41.7478 1225.59 41.6265C1223.94 41.0127 1221.89 41.4615 1221.04 42.8291L1206.4 66.295C1205.81 67.2292 1205.95 68.3724 1206.84 69.1459C1209.8 71.7335 1213.23 73.5759 1216.94 74.9597C1228.73 79.3526 1243.4 79.1338 1255.18 83.5267C1258.14 84.6283 1260.91 86.0193 1263.42 87.8458C1263.7 88.0509 1264.01 88.2135 1264.33 88.3348C1265.98 88.9486 1268.03 88.4998 1268.89 87.1322L1283.53 63.667C1284.11 62.7317 1283.97 61.5893 1283.08 60.815ZM1224.64 46.1246C1226.34 47.215 1228.23 48.1511 1230.23 49.022C1228.31 50.9861 1224.82 51.7029 1221.85 50.5972L1224.64 46.1246ZM1211.49 67.2044L1213.7 63.6704C1216.98 64.8962 1218.39 67.9051 1216.96 70.4841C1214.89 69.5466 1213.08 68.4627 1211.49 67.2044ZM1240.53 72.0814C1236.3 70.5054 1234.86 66.0485 1237.31 62.1276C1239.75 58.206 1245.16 56.3046 1249.39 57.8803C1253.62 59.456 1255.06 63.9125 1252.62 67.834C1250.17 71.7564 1244.76 73.6567 1240.53 72.0814ZM1265.28 83.8371C1263.81 82.8875 1262.18 82.0568 1260.47 81.2755C1262.24 79.5558 1265.22 78.8628 1267.94 79.5678L1265.28 83.8371ZM1276.18 66.3734C1273.4 64.9825 1272.3 62.22 1273.68 59.8304C1275.45 60.6878 1277.03 61.6497 1278.43 62.7572L1276.18 66.3734Z" fill="#55229E" fill-opacity="0.11"/>
<path d="M1613.08 60.815C1610.12 58.2281 1606.69 56.3858 1602.98 55.002C1591.19 50.6084 1576.53 50.8275 1564.74 46.4346C1561.78 45.3329 1559.01 43.942 1556.51 42.1155C1556.23 41.9104 1555.92 41.7478 1555.59 41.6265C1553.94 41.0127 1551.89 41.4615 1551.04 42.8291L1536.4 66.295C1535.81 67.2292 1535.95 68.3724 1536.84 69.1459C1539.8 71.7335 1543.23 73.5759 1546.94 74.9597C1558.73 79.3526 1573.4 79.1338 1585.18 83.5267C1588.14 84.6283 1590.91 86.0193 1593.42 87.8458C1593.7 88.0509 1594.01 88.2135 1594.33 88.3348C1595.98 88.9486 1598.03 88.4998 1598.89 87.1322L1613.53 63.667C1614.11 62.7317 1613.97 61.5893 1613.08 60.815ZM1554.64 46.1246C1556.34 47.215 1558.23 48.1511 1560.23 49.022C1558.31 50.9861 1554.82 51.7029 1551.85 50.5972L1554.64 46.1246ZM1541.49 67.2044L1543.7 63.6704C1546.98 64.8962 1548.39 67.9051 1546.96 70.4841C1544.89 69.5466 1543.08 68.4627 1541.49 67.2044ZM1570.53 72.0814C1566.3 70.5054 1564.86 66.0485 1567.31 62.1276C1569.75 58.206 1575.16 56.3046 1579.39 57.8803C1583.62 59.456 1585.06 63.9125 1582.62 67.834C1580.17 71.7564 1574.76 73.6567 1570.53 72.0814ZM1595.28 83.8371C1593.81 82.8875 1592.18 82.0568 1590.47 81.2755C1592.24 79.5558 1595.22 78.8628 1597.94 79.5678L1595.28 83.8371ZM1606.18 66.3734C1603.4 64.9825 1602.3 62.22 1603.68 59.8304C1605.45 60.6878 1607.03 61.6497 1608.43 62.7572L1606.18 66.3734Z" fill="#55229E" fill-opacity="0.11"/>
<path d="M451.636 267.87C448.675 265.283 445.245 263.441 441.532 262.057C429.744 257.664 415.08 257.883 403.293 253.49C400.336 252.388 397.563 250.997 395.059 249.171C394.778 248.966 394.468 248.803 394.143 248.682C392.496 248.068 390.442 248.517 389.589 249.884L374.948 273.35C374.365 274.284 374.505 275.428 375.391 276.201C378.353 278.789 381.782 280.631 385.495 282.015C397.283 286.408 411.948 286.189 423.736 290.582C426.692 291.684 429.466 293.074 431.97 294.901C432.251 295.106 432.56 295.269 432.885 295.39C434.533 296.004 436.587 295.555 437.44 294.187L452.08 270.722C452.663 269.787 452.523 268.644 451.636 267.87ZM393.194 253.18C394.887 254.27 396.78 255.206 398.785 256.077C396.866 258.041 393.371 258.758 390.404 257.652L393.194 253.18ZM380.042 274.26L382.247 270.726C385.537 271.951 386.94 274.96 385.511 277.539C383.438 276.602 381.631 275.518 380.042 274.26ZM409.083 279.137C404.854 277.561 403.411 273.104 405.857 269.183C408.304 265.261 413.716 263.36 417.944 264.935C422.172 266.511 423.617 270.968 421.17 274.889C418.723 278.812 413.311 280.712 409.083 279.137ZM433.833 290.892C432.359 289.943 430.731 289.112 429.024 288.331C430.789 286.611 433.773 285.918 436.496 286.623L433.833 290.892ZM444.729 273.429C441.953 272.038 440.849 269.275 442.228 266.886C443.998 267.743 445.586 268.705 446.985 269.812L444.729 273.429Z" fill="#55229E" fill-opacity="0.11"/>
<path d="M464.88 451.271C461.919 448.684 458.489 446.842 454.776 445.458C442.989 441.065 428.325 441.284 416.537 436.891C413.58 435.789 410.807 434.398 408.303 432.572C408.022 432.367 407.713 432.204 407.387 432.083C405.74 431.469 403.686 431.918 402.833 433.285L388.192 456.751C387.609 457.685 387.749 458.829 388.636 459.602C391.597 462.19 395.026 464.032 398.739 465.416C410.527 469.809 425.192 469.59 436.98 473.983C439.936 475.085 442.71 476.476 445.214 478.302C445.495 478.507 445.804 478.67 446.13 478.791C447.777 479.405 449.831 478.956 450.684 477.588L465.324 454.123C465.907 453.188 465.767 452.046 464.88 451.271ZM406.439 436.581C408.132 437.671 410.025 438.607 412.029 439.478C410.11 441.442 406.615 442.159 403.648 441.054L406.439 436.581ZM393.287 457.661L395.491 454.127C398.781 455.353 400.184 458.361 398.755 460.94C396.683 460.003 394.875 458.919 393.287 457.661ZM422.328 462.538C418.098 460.962 416.655 456.505 419.101 452.584C421.548 448.662 426.96 446.761 431.188 448.337C435.416 449.912 436.861 454.369 434.414 458.29C431.967 462.213 426.555 464.113 422.328 462.538ZM447.077 474.293C445.603 473.344 443.975 472.513 442.268 471.732C444.033 470.012 447.017 469.319 449.74 470.024L447.077 474.293ZM457.973 456.83C455.197 455.439 454.093 452.676 455.472 450.287C457.242 451.144 458.83 452.106 460.229 453.214L457.973 456.83Z" fill="#55229E" fill-opacity="0.11"/>
<path d="M314.247 688.13C311.285 685.543 307.856 683.701 304.143 682.317C292.355 677.923 277.691 678.142 265.903 673.75C262.947 672.648 260.174 671.257 257.67 669.43C257.388 669.225 257.079 669.063 256.754 668.941C255.107 668.328 253.053 668.776 252.2 670.144L237.559 693.61C236.976 694.544 237.115 695.687 238.002 696.461C240.963 699.048 244.393 700.891 248.106 702.275C259.894 706.668 274.559 706.449 286.347 710.842C289.303 711.943 292.077 713.334 294.581 715.161C294.862 715.366 295.171 715.528 295.496 715.65C297.143 716.264 299.197 715.815 300.051 714.447L314.691 690.982C315.273 690.047 315.133 688.904 314.247 688.13ZM255.805 673.44C257.498 674.53 259.391 675.466 261.396 676.337C259.477 678.301 255.982 679.018 253.015 677.912L255.805 673.44ZM242.653 694.519L244.858 690.985C248.147 692.211 249.551 695.22 248.122 697.799C246.049 696.862 244.241 695.778 242.653 694.519ZM271.694 699.396C267.465 697.82 266.022 693.363 268.468 689.443C270.915 685.521 276.326 683.62 280.555 685.195C284.783 686.771 286.227 691.227 283.781 695.149C281.333 699.071 275.921 700.972 271.694 699.396ZM296.444 711.152C294.969 710.202 293.342 709.372 291.634 708.59C293.4 706.871 296.384 706.178 299.107 706.883L296.444 711.152ZM307.339 693.688C304.564 692.297 303.46 689.535 304.839 687.145C306.609 688.003 308.196 688.965 309.596 690.072L307.339 693.688Z" fill="#55229E" fill-opacity="0.11"/>
<path d="M444.247 843.13C441.285 840.543 437.856 838.701 434.143 837.317C422.355 832.923 407.691 833.142 395.903 828.75C392.947 827.648 390.174 826.257 387.67 824.43C387.388 824.225 387.079 824.063 386.754 823.941C385.107 823.328 383.053 823.776 382.2 825.144L367.559 848.61C366.976 849.544 367.115 850.687 368.002 851.461C370.963 854.048 374.393 855.891 378.106 857.275C389.894 861.668 404.559 861.449 416.347 865.842C419.303 866.943 422.077 868.334 424.581 870.161C424.862 870.366 425.171 870.528 425.496 870.65C427.143 871.264 429.197 870.815 430.051 869.447L444.691 845.982C445.273 845.047 445.133 843.904 444.247 843.13ZM385.805 828.44C387.498 829.53 389.391 830.466 391.396 831.337C389.477 833.301 385.982 834.018 383.015 832.912L385.805 828.44ZM372.653 849.519L374.858 845.985C378.147 847.211 379.551 850.22 378.122 852.799C376.049 851.862 374.241 850.778 372.653 849.519ZM401.694 854.396C397.465 852.82 396.022 848.363 398.468 844.443C400.915 840.521 406.326 838.62 410.555 840.195C414.783 841.771 416.227 846.227 413.781 850.149C411.333 854.071 405.921 855.972 401.694 854.396ZM426.444 866.152C424.969 865.202 423.342 864.372 421.634 863.59C423.4 861.871 426.384 861.178 429.107 861.883L426.444 866.152ZM437.339 848.688C434.564 847.297 433.46 844.535 434.839 842.145C436.609 843.003 438.196 843.965 439.596 845.072L437.339 848.688Z" fill="#55229E" fill-opacity="0.11"/>
<path d="M184.247 873.13C181.285 870.543 177.856 868.701 174.143 867.317C162.355 862.923 147.691 863.142 135.903 858.75C132.947 857.648 130.174 856.257 127.67 854.43C127.388 854.225 127.079 854.063 126.754 853.941C125.107 853.328 123.053 853.776 122.2 855.144L107.559 878.61C106.976 879.544 107.115 880.687 108.002 881.461C110.963 884.048 114.393 885.891 118.106 887.275C129.894 891.668 144.559 891.449 156.347 895.842C159.303 896.943 162.077 898.334 164.581 900.161C164.862 900.366 165.171 900.528 165.496 900.65C167.143 901.264 169.197 900.815 170.051 899.447L184.691 875.982C185.273 875.047 185.133 873.904 184.247 873.13ZM125.805 858.44C127.498 859.53 129.391 860.466 131.396 861.337C129.477 863.301 125.982 864.018 123.015 862.912L125.805 858.44ZM112.653 879.519L114.858 875.985C118.147 877.211 119.551 880.22 118.122 882.799C116.049 881.862 114.241 880.778 112.653 879.519ZM141.694 884.396C137.465 882.82 136.022 878.363 138.468 874.443C140.915 870.521 146.326 868.62 150.555 870.195C154.783 871.771 156.227 876.227 153.781 880.149C151.333 884.071 145.921 885.972 141.694 884.396ZM166.444 896.152C164.969 895.202 163.342 894.372 161.634 893.59C163.4 891.871 166.384 891.178 169.107 891.883L166.444 896.152ZM177.339 878.688C174.564 877.297 173.46 874.535 174.839 872.145C176.609 873.003 178.196 873.965 179.596 875.072L177.339 878.688Z" fill="#55229E" fill-opacity="0.11"/>
<path d="M324.247 1023.13C321.285 1020.54 317.856 1018.7 314.143 1017.32C302.355 1012.92 287.691 1013.14 275.903 1008.75C272.947 1007.65 270.174 1006.26 267.67 1004.43C267.388 1004.23 267.079 1004.06 266.754 1003.94C265.107 1003.33 263.053 1003.78 262.2 1005.14L247.559 1028.61C246.976 1029.54 247.115 1030.69 248.002 1031.46C250.963 1034.05 254.393 1035.89 258.106 1037.27C269.894 1041.67 284.559 1041.45 296.347 1045.84C299.303 1046.94 302.077 1048.33 304.581 1050.16C304.862 1050.37 305.171 1050.53 305.496 1050.65C307.143 1051.26 309.197 1050.81 310.051 1049.45L324.691 1025.98C325.273 1025.05 325.133 1023.9 324.247 1023.13ZM265.805 1008.44C267.498 1009.53 269.391 1010.47 271.396 1011.34C269.477 1013.3 265.982 1014.02 263.015 1012.91L265.805 1008.44ZM252.653 1029.52L254.858 1025.99C258.147 1027.21 259.551 1030.22 258.122 1032.8C256.049 1031.86 254.241 1030.78 252.653 1029.52ZM281.694 1034.4C277.465 1032.82 276.022 1028.36 278.468 1024.44C280.915 1020.52 286.326 1018.62 290.555 1020.2C294.783 1021.77 296.227 1026.23 293.781 1030.15C291.333 1034.07 285.921 1035.97 281.694 1034.4ZM306.444 1046.15C304.969 1045.2 303.342 1044.37 301.634 1043.59C303.4 1041.87 306.384 1041.18 309.107 1041.88L306.444 1046.15ZM317.339 1028.69C314.564 1027.3 313.46 1024.53 314.839 1022.15C316.609 1023 318.196 1023.96 319.596 1025.07L317.339 1028.69Z" fill="#55229E" fill-opacity="0.11"/>
<path d="M655.085 1055.81C652.123 1053.23 648.694 1051.39 644.98 1050C633.193 1045.61 618.529 1045.83 606.741 1041.43C603.785 1040.33 601.011 1038.94 598.507 1037.12C598.226 1036.91 597.917 1036.75 597.592 1036.63C595.945 1036.01 593.89 1036.46 593.037 1037.83L578.396 1061.3C577.814 1062.23 577.953 1063.37 578.84 1064.15C581.801 1066.73 585.231 1068.58 588.944 1069.96C600.732 1074.35 615.397 1074.13 627.184 1078.53C630.141 1079.63 632.914 1081.02 635.418 1082.85C635.7 1083.05 636.009 1083.21 636.334 1083.33C637.981 1083.95 640.035 1083.5 640.888 1082.13L655.529 1058.67C656.111 1057.73 655.971 1056.59 655.085 1055.81ZM596.643 1041.12C598.336 1042.21 600.229 1043.15 602.233 1044.02C600.314 1045.99 596.819 1046.7 593.852 1045.6L596.643 1041.12ZM583.491 1062.2L585.696 1058.67C588.985 1059.9 590.388 1062.91 588.96 1065.48C586.887 1064.55 585.079 1063.46 583.491 1062.2ZM612.532 1067.08C608.303 1065.51 606.86 1061.05 609.306 1057.13C611.753 1053.21 617.164 1051.3 621.392 1052.88C625.62 1054.46 627.065 1058.91 624.618 1062.83C622.171 1066.76 616.759 1068.66 612.532 1067.08ZM637.281 1078.84C635.807 1077.89 634.18 1077.06 632.472 1076.28C634.237 1074.56 637.221 1073.86 639.945 1074.57L637.281 1078.84ZM648.177 1061.37C645.401 1059.98 644.297 1057.22 645.676 1054.83C647.446 1055.69 649.034 1056.65 650.433 1057.76L648.177 1061.37Z" fill="#55229E" fill-opacity="0.11"/>
<path d="M994.922 1060.5C991.961 1057.91 988.531 1056.07 984.818 1054.69C973.031 1050.29 958.367 1050.51 946.579 1046.12C943.622 1045.02 940.849 1043.63 938.345 1041.8C938.064 1041.6 937.755 1041.43 937.429 1041.31C935.782 1040.7 933.728 1041.15 932.875 1042.51L918.234 1065.98C917.651 1066.91 917.791 1068.06 918.678 1068.83C921.639 1071.42 925.068 1073.26 928.781 1074.64C940.569 1079.04 955.234 1078.82 967.022 1083.21C969.978 1084.31 972.752 1085.7 975.256 1087.53C975.537 1087.74 975.846 1087.9 976.172 1088.02C977.819 1088.63 979.873 1088.18 980.726 1086.82L995.366 1063.35C995.949 1062.42 995.809 1061.27 994.922 1060.5ZM936.481 1045.81C938.174 1046.9 940.067 1047.84 942.071 1048.71C940.152 1050.67 936.657 1051.39 933.69 1050.28L936.481 1045.81ZM923.329 1066.89L925.533 1063.36C928.823 1064.58 930.226 1067.59 928.797 1070.17C926.725 1069.23 924.917 1068.15 923.329 1066.89ZM952.37 1071.77C948.14 1070.19 946.697 1065.73 949.143 1061.81C951.59 1057.89 957.002 1055.99 961.23 1057.57C965.458 1059.14 966.903 1063.6 964.456 1067.52C962.009 1071.44 956.597 1073.34 952.37 1071.77ZM977.119 1083.52C975.645 1082.57 974.017 1081.74 972.31 1080.96C974.075 1079.24 977.059 1078.55 979.782 1079.25L977.119 1083.52ZM988.015 1066.06C985.239 1064.67 984.135 1061.91 985.514 1059.52C987.284 1060.37 988.872 1061.33 990.271 1062.44L988.015 1066.06Z" fill="#55229E" fill-opacity="0.11"/>
<path d="M1627.08 895.815C1624.12 893.228 1620.69 891.386 1616.98 890.002C1605.19 885.608 1590.53 885.828 1578.74 881.435C1575.79 880.333 1573.01 878.942 1570.51 877.115C1570.23 876.91 1569.92 876.748 1569.59 876.627C1567.94 876.013 1565.89 876.462 1565.04 877.829L1550.4 901.295C1549.81 902.229 1549.95 903.372 1550.84 904.146C1553.8 906.734 1557.23 908.576 1560.94 909.96C1572.73 914.353 1587.4 914.134 1599.18 918.527C1602.14 919.628 1604.91 921.019 1607.42 922.846C1607.7 923.051 1608.01 923.214 1608.33 923.335C1609.98 923.949 1612.04 923.5 1612.89 922.132L1627.53 898.667C1628.11 897.732 1627.97 896.589 1627.08 895.815ZM1568.64 881.125C1570.34 882.215 1572.23 883.151 1574.23 884.022C1572.31 885.986 1568.82 886.703 1565.85 885.597L1568.64 881.125ZM1555.49 902.204L1557.7 898.67C1560.99 899.896 1562.39 902.905 1560.96 905.484C1558.89 904.547 1557.08 903.463 1555.49 902.204ZM1584.53 907.081C1580.3 905.505 1578.86 901.048 1581.31 897.128C1583.75 893.206 1589.16 891.305 1593.39 892.88C1597.62 894.456 1599.07 898.912 1596.62 902.834C1594.17 906.756 1588.76 908.657 1584.53 907.081ZM1609.28 918.837C1607.81 917.887 1606.18 917.057 1604.47 916.275C1606.24 914.556 1609.22 913.863 1611.95 914.568L1609.28 918.837ZM1620.18 901.373C1617.4 899.982 1616.3 897.22 1617.68 894.83C1619.45 895.688 1621.03 896.65 1622.43 897.757L1620.18 901.373Z" fill="#55229E" fill-opacity="0.11"/>
<path d="M1308.54 1074.85C1305.58 1072.27 1302.15 1070.42 1298.44 1069.04C1286.65 1064.65 1271.99 1064.87 1260.2 1060.47C1257.25 1059.37 1254.47 1057.98 1251.97 1056.15C1251.69 1055.95 1251.38 1055.79 1251.05 1055.66C1249.4 1055.05 1247.35 1055.5 1246.5 1056.87L1231.86 1080.33C1231.27 1081.27 1231.41 1082.41 1232.3 1083.18C1235.26 1085.77 1238.69 1087.61 1242.4 1089C1254.19 1093.39 1268.86 1093.17 1280.64 1097.56C1283.6 1098.67 1286.37 1100.06 1288.88 1101.88C1289.16 1102.09 1289.47 1102.25 1289.79 1102.37C1291.44 1102.99 1293.5 1102.54 1294.35 1101.17L1308.99 1077.71C1309.57 1076.77 1309.43 1075.63 1308.54 1074.85ZM1250.1 1060.16C1251.8 1061.25 1253.69 1062.19 1255.69 1063.06C1253.77 1065.02 1250.28 1065.74 1247.31 1064.64L1250.1 1060.16ZM1236.95 1081.24L1239.16 1077.71C1242.45 1078.93 1243.85 1081.94 1242.42 1084.52C1240.35 1083.58 1238.54 1082.5 1236.95 1081.24ZM1265.99 1086.12C1261.76 1084.54 1260.32 1080.09 1262.77 1076.17C1265.21 1072.24 1270.62 1070.34 1274.85 1071.92C1279.08 1073.49 1280.53 1077.95 1278.08 1081.87C1275.63 1085.79 1270.22 1087.69 1265.99 1086.12ZM1290.74 1097.88C1289.27 1096.93 1287.64 1096.09 1285.93 1095.31C1287.7 1093.59 1290.68 1092.9 1293.41 1093.61L1290.74 1097.88ZM1301.64 1080.41C1298.86 1079.02 1297.76 1076.26 1299.14 1073.87C1300.91 1074.73 1302.49 1075.69 1303.89 1076.8L1301.64 1080.41Z" fill="#55229E" fill-opacity="0.11"/>
<path d="M1520.08 1022.81C1517.12 1020.23 1513.69 1018.39 1509.98 1017C1498.19 1012.61 1483.53 1012.83 1471.74 1008.43C1468.79 1007.33 1466.01 1005.94 1463.51 1004.12C1463.23 1003.91 1462.92 1003.75 1462.59 1003.63C1460.94 1003.01 1458.89 1003.46 1458.04 1004.83L1443.4 1028.3C1442.81 1029.23 1442.95 1030.37 1443.84 1031.15C1446.8 1033.73 1450.23 1035.58 1453.94 1036.96C1465.73 1041.35 1480.4 1041.13 1492.18 1045.53C1495.14 1046.63 1497.91 1048.02 1500.42 1049.85C1500.7 1050.05 1501.01 1050.21 1501.33 1050.33C1502.98 1050.95 1505.04 1050.5 1505.89 1049.13L1520.53 1025.67C1521.11 1024.73 1520.97 1023.59 1520.08 1022.81ZM1461.64 1008.12C1463.34 1009.21 1465.23 1010.15 1467.23 1011.02C1465.31 1012.99 1461.82 1013.7 1458.85 1012.6L1461.64 1008.12ZM1448.49 1029.2L1450.7 1025.67C1453.99 1026.9 1455.39 1029.91 1453.96 1032.48C1451.89 1031.55 1450.08 1030.46 1448.49 1029.2ZM1477.53 1034.08C1473.3 1032.51 1471.86 1028.05 1474.31 1024.13C1476.75 1020.21 1482.16 1018.3 1486.39 1019.88C1490.62 1021.46 1492.07 1025.91 1489.62 1029.83C1487.17 1033.76 1481.76 1035.66 1477.53 1034.08ZM1502.28 1045.84C1500.81 1044.89 1499.18 1044.06 1497.47 1043.28C1499.24 1041.56 1502.22 1040.86 1504.95 1041.57L1502.28 1045.84ZM1513.18 1028.37C1510.4 1026.98 1509.3 1024.22 1510.68 1021.83C1512.45 1022.69 1514.03 1023.65 1515.43 1024.76L1513.18 1028.37Z" fill="#55229E" fill-opacity="0.11"/>
<path d="M1464.75 754.978C1461.79 752.391 1458.36 750.549 1454.65 749.165C1442.86 744.772 1428.19 744.991 1416.41 740.598C1413.45 739.496 1410.68 738.105 1408.17 736.279C1407.89 736.074 1407.58 735.911 1407.26 735.79C1405.61 735.176 1403.56 735.625 1402.7 736.992L1388.06 760.458C1387.48 761.393 1387.62 762.536 1388.51 763.309C1391.47 765.897 1394.9 767.739 1398.61 769.123C1410.4 773.516 1425.06 773.297 1436.85 777.69C1439.81 778.792 1442.58 780.183 1445.08 782.009C1445.37 782.214 1445.67 782.377 1446 782.498C1447.65 783.112 1449.7 782.663 1450.55 781.296L1465.19 757.83C1465.78 756.895 1465.64 755.753 1464.75 754.978ZM1406.31 740.288C1408 741.378 1409.89 742.314 1411.9 743.185C1409.98 745.149 1406.48 745.866 1403.52 744.761L1406.31 740.288ZM1393.16 761.368L1395.36 757.834C1398.65 759.06 1400.05 762.068 1398.63 764.647C1396.55 763.71 1394.74 762.626 1393.16 761.368ZM1422.2 766.245C1417.97 764.669 1416.53 760.212 1418.97 756.291C1421.42 752.369 1426.83 750.468 1431.06 752.044C1435.29 753.619 1436.73 758.076 1434.28 761.997C1431.84 765.92 1426.42 767.82 1422.2 766.245ZM1446.95 778C1445.47 777.051 1443.85 776.22 1442.14 775.439C1443.9 773.719 1446.89 773.026 1449.61 773.731L1446.95 778ZM1457.84 760.537C1455.07 759.146 1453.96 756.383 1455.34 753.994C1457.11 754.851 1458.7 755.813 1460.1 756.921L1457.84 760.537Z" fill="#55229E" fill-opacity="0.11"/>
</svg>
