<svg width="13" height="12" viewBox="0 0 13 12" fill="none" xmlns="http://www.w3.org/2000/svg">
<path d="M12.3908 3.72885C12.3908 5.32086 11.1737 6.61144 9.67243 6.61144C8.17114 6.61144 6.9541 5.32086 6.9541 3.72885C6.9541 2.13683 8.17114 0.846252 9.67243 0.846252C11.1737 0.846252 12.3908 2.13683 12.3908 3.72885Z" fill="#F11305" fill-opacity="0.7"/>
<path d="M7.66554 1.78597C7.22555 1.64353 6.75849 1.56689 6.27455 1.56689C3.64728 1.56689 1.51747 3.82541 1.51747 6.61142V9.29396C1.51747 9.42209 1.46949 9.54489 1.38408 9.63548L1.03693 10.0036C0.909491 10.1388 0.837891 10.322 0.837891 10.5132V10.9353C0.837891 11.3333 1.14215 11.656 1.51747 11.656H11.0316C11.407 11.656 11.7112 11.3333 11.7112 10.9353V10.5132C11.7112 10.322 11.6396 10.1388 11.5122 10.0036L11.165 9.63548C11.0796 9.54489 11.0316 9.42209 11.0316 9.29396V6.61142C11.0316 6.48427 11.0272 6.35822 11.0182 6.23394" stroke="#726D6D" stroke-width="0.381074" stroke-linecap="round" stroke-linejoin="round"/>
</svg>

