 <svg width="201" height="24" viewBox="0 0 201 24" fill="none" xmlns="http://www.w3.org/2000/svg">
<line x1="6.38086" y1="13.144" x2="197.792" y2="13.144" stroke="#55229E" stroke-width="2.83997"/>
<path d="M0.72813 11.6511C0.72813 17.6228 6.05153 22.5741 12.7607 22.5741C19.4699 22.5741 24.7933 17.6228 24.7933 11.6511C24.7933 5.6795 19.4699 0.728196 12.7607 0.728196C6.05153 0.728196 0.72813 5.6795 0.72813 11.6511Z" fill="white" stroke="#55229E" stroke-width="1.45639"/>
<path d="M61.3414 11.6511C61.3414 17.6228 66.6648 22.5741 73.374 22.5741C80.0832 22.5741 85.4066 17.6228 85.4066 11.6511C85.4066 5.6795 80.0832 0.728196 73.374 0.728196C66.6648 0.728196 61.3414 5.6795 61.3414 11.6511Z" fill="white" stroke="#55229E" stroke-width="1.45639"/>
<path d="M118.766 11.6511C118.766 17.6228 124.09 22.5741 130.799 22.5741C137.508 22.5741 142.831 17.6228 142.831 11.6511C142.831 5.6795 137.508 0.728196 130.799 0.728196C124.09 0.728196 118.766 5.6795 118.766 11.6511Z" fill="#55229E" stroke="#55229E" stroke-width="1.45639"/>
<path d="M176.188 11.6511C176.188 17.6228 181.511 22.5741 188.221 22.5741C194.93 22.5741 200.253 17.6228 200.253 11.6511C200.253 5.6795 194.93 0.728196 188.221 0.728196C181.511 0.728196 176.188 5.6795 176.188 11.6511Z" fill="white" stroke="#55229E" stroke-width="1.45639"/>
</svg>

