<svg width="185" height="21" viewBox="0 0 185 21" fill="none" xmlns="http://www.w3.org/2000/svg">
<line x1="6.50537" y1="11.2585" x2="181.751" y2="11.2585" stroke="#55229E" stroke-width="3.20636"/>
<ellipse cx="11.6831" cy="10.2894" rx="11.6831" ry="10.2894" transform="matrix(-1 0 0 1 24.0298 0)" fill="#55229E"/>
<path d="M56.9805 10.2894C56.9805 15.423 61.7418 19.7567 67.8414 19.7567C73.9409 19.7567 78.7023 15.423 78.7023 10.2894C78.7023 5.1558 73.9409 0.822145 67.8414 0.822145C61.7418 0.822145 56.9805 5.1558 56.9805 10.2894Z" fill="white" stroke="#55229E" stroke-width="1.64429"/>
<path d="M109.553 10.2894C109.553 15.423 114.315 19.7567 120.414 19.7567C126.514 19.7567 131.275 15.423 131.275 10.2894C131.275 5.1558 126.514 0.822145 120.414 0.822145C114.315 0.822145 109.553 5.1558 109.553 10.2894Z" fill="white" stroke="#55229E" stroke-width="1.64429"/>
<path d="M162.128 10.2894C162.128 15.423 166.889 19.7567 172.989 19.7567C179.088 19.7567 183.85 15.423 183.85 10.2894C183.85 5.1558 179.088 0.822145 172.989 0.822145C166.889 0.822145 162.128 5.1558 162.128 10.2894Z" fill="white" stroke="#55229E" stroke-width="1.64429"/>
</svg>
