<svg width="185" height="21" viewBox="0 0 185 21" fill="none" xmlns="http://www.w3.org/2000/svg">
<line x1="6.50537" y1="11.2585" x2="181.751" y2="11.2585" stroke="#55229E" stroke-width="3.20636"/>
<path d="M1.48368 10.2894C1.48368 15.4244 6.24626 19.7588 12.3467 19.7588C18.4472 19.7588 23.2098 15.4244 23.2098 10.2894C23.2098 5.15437 18.4472 0.82 12.3467 0.82C6.24626 0.82 1.48368 5.15437 1.48368 10.2894Z" fill="white" stroke="#55229E" stroke-width="1.64"/>
<path d="M56.9805 10.2894C56.9805 15.423 61.7418 19.7567 67.8414 19.7567C73.9409 19.7567 78.7023 15.423 78.7023 10.2894C78.7023 5.1558 73.9409 0.822145 67.8414 0.822145C61.7418 0.822145 56.9805 5.1558 56.9805 10.2894Z" fill="#55229E" stroke="#55229E" stroke-width="1.64429"/>
<path d="M109.554 10.2894C109.554 15.423 114.315 19.7567 120.415 19.7567C126.514 19.7567 131.276 15.423 131.276 10.2894C131.276 5.1558 126.514 0.822145 120.415 0.822145C114.315 0.822145 109.554 5.1558 109.554 10.2894Z" fill="white" stroke="#55229E" stroke-width="1.64429"/>
<path d="M162.128 10.2894C162.128 15.423 166.889 19.7567 172.989 19.7567C179.088 19.7567 183.85 15.423 183.85 10.2894C183.85 5.1558 179.088 0.822145 172.989 0.822145C166.889 0.822145 162.128 5.1558 162.128 10.2894Z" fill="white" stroke="#55229E" stroke-width="1.64429"/>
</svg>
