<svg width="66" height="63" viewBox="0 0 66 63" fill="none" xmlns="http://www.w3.org/2000/svg">
<path d="M45.2402 62.0338C44.3351 62.0361 43.4661 61.6794 42.8237 61.0418C42.1813 60.4042 41.818 59.5378 41.8136 58.6327V56.1743C39.2397 56.4625 30.4261 56.3957 27.8996 55.9898V58.5344C27.8929 59.4387 27.5288 60.3038 26.887 60.9408C26.2451 61.5779 25.3774 61.9355 24.473 61.9355C23.5686 61.9355 22.7009 61.5779 22.059 60.9408C21.4171 60.3038 21.0531 59.4387 21.0463 58.5344V53.5383C17.6245 51.6374 14.7719 48.8577 12.783 45.4863C10.794 42.1148 9.74078 38.2737 9.73193 34.3593C9.73193 27.6475 12.7738 21.3863 18.0775 17.1812C21.5259 14.4378 25.7157 12.7879 30.1088 12.4435C30.705 12.3967 31.305 12.3731 31.892 12.3731C33.9598 12.3731 43.2897 12.6925 45.6305 13.366L50.9682 8.06954C51.0467 7.99062 51.1469 7.93685 51.256 7.9151C51.3652 7.89335 51.4784 7.9046 51.5811 7.94741C51.6846 7.98859 51.7732 8.06011 51.8354 8.15257C51.8975 8.24504 51.9302 8.35414 51.9292 8.46554V9.30765L52.9685 8.2783C53.0469 8.19929 53.147 8.14545 53.2561 8.12366C53.3652 8.10186 53.4783 8.11311 53.5809 8.15596C53.6845 8.19712 53.7733 8.26865 53.8354 8.36116C53.8976 8.45367 53.9304 8.56282 53.9294 8.67429V18.0847C56.6078 20.4993 58.6492 23.5373 59.8727 26.9295C61.0962 30.3217 61.464 33.9633 60.9435 37.5317C60.423 41.1 59.0303 44.4849 56.8889 47.3863C54.7474 50.2877 51.9233 52.616 48.6669 54.165V58.6327C48.6624 59.5378 48.2992 60.4042 47.6568 61.0418C47.0144 61.6794 46.1453 62.0361 45.2402 62.0338ZM42.083 55.8688V58.6327C42.0898 59.4656 42.4254 60.2621 43.0168 60.8486C43.6081 61.4352 44.4073 61.7643 45.2402 61.7643C46.0731 61.7643 46.8723 61.4352 47.4637 60.8486C48.055 60.2621 48.3907 59.4656 48.3975 58.6327V53.9948L48.4744 53.9583C52.1283 52.2244 55.2303 49.5118 57.4357 46.1215C60.2461 41.7953 61.4149 36.606 60.7306 31.4926C60.0462 26.3793 57.5539 21.68 53.7048 18.2451L53.66 18.2049V8.67428C53.661 8.61638 53.6442 8.55957 53.6119 8.5115C53.5796 8.46344 53.5333 8.42644 53.4793 8.40548C53.4257 8.38254 53.3663 8.37635 53.3091 8.38772C53.2518 8.39909 53.1994 8.4275 53.1586 8.46921L51.6598 9.95362V8.46553C51.6608 8.40763 51.644 8.35081 51.6116 8.30275C51.5793 8.25469 51.5331 8.21769 51.4791 8.19673C51.4253 8.17382 51.3658 8.16769 51.3085 8.17915C51.2512 8.1906 51.1986 8.21911 51.1578 8.26092L45.7058 13.6708L45.6284 13.6465C43.4522 12.9654 33.9755 12.6425 31.8919 12.6425C31.3119 12.6425 30.7191 12.6659 30.1299 12.7121C25.7902 13.0523 21.6513 14.6821 18.2449 17.3922C13.006 21.5459 10.0013 27.7302 10.0013 34.3593C10.0103 38.2391 11.0579 42.0457 13.0353 45.3837C15.0128 48.7217 17.8479 51.4693 21.2462 53.3412L21.3157 53.3797V58.5344C21.3226 59.3672 21.6583 60.1635 22.2497 60.75C22.841 61.3364 23.6401 61.6654 24.473 61.6654C25.3058 61.6654 26.1049 61.3364 26.6963 60.75C27.2876 60.1635 27.6233 59.3672 27.6302 58.5344V55.6673L27.7898 55.6973C30.0602 56.1245 39.6203 56.1918 41.9308 55.8888L42.083 55.8688Z" fill="#55229E"/>
<path d="M10.6611 27.6262C8.78174 27.3485 6.98438 26.6689 5.39149 25.6337C4.60234 25.1212 3.87179 24.5237 3.21294 23.8519C2.56265 23.1886 1.94055 22.4348 1.61845 21.5515C1.30855 20.7342 1.32452 19.8291 1.66307 19.0233C1.99699 18.2225 2.63487 17.5867 3.43683 17.2554C4.2436 16.9336 5.21834 16.8992 6.0035 17.2516C6.37765 17.4156 6.70142 17.6762 6.94156 18.0067C7.05319 18.159 7.13585 18.3306 7.1854 18.5129C7.23139 18.678 7.23557 18.852 7.19757 19.0192C7.15153 19.1861 7.07034 19.3412 6.95943 19.4742C6.84853 19.6071 6.71049 19.7148 6.55455 19.7901C6.21137 19.9661 5.83953 20.0795 5.4565 20.1249C5.07126 20.1775 4.51786 20.2253 4.20815 19.916C4.1444 19.8548 4.09426 19.7809 4.06098 19.6991C4.0377 19.6364 4.02974 19.569 4.03776 19.5027C4.03325 19.5319 4.05645 19.439 4.05513 19.4427C4.05023 19.4565 4.02902 19.4899 4.05917 19.4385C4.06859 19.4216 4.07908 19.4052 4.09057 19.3896C4.08033 19.4029 4.05785 19.425 4.098 19.3871C4.13117 19.3508 4.17382 19.3244 4.22114 19.311C4.23979 19.3056 4.2587 19.3013 4.2774 19.2962C4.32491 19.2832 4.23003 19.2969 4.27865 19.2953C4.29741 19.2947 4.31639 19.2952 4.33508 19.2943C4.38277 19.2922 4.28804 19.2813 4.33374 19.2928C4.35148 19.2973 4.36906 19.3016 4.38654 19.3072C4.42454 19.3191 4.35963 19.2793 4.38538 19.3091C4.41555 19.344 4.3537 19.2751 4.388 19.3089C4.40506 19.3257 4.42115 19.3434 4.43617 19.3621C4.49565 19.4208 4.57586 19.4537 4.65943 19.4537C4.743 19.4537 4.82321 19.4208 4.88269 19.3621C4.94014 19.3019 4.97219 19.222 4.97219 19.1388C4.97219 19.0556 4.94014 18.9757 4.88269 18.9155C4.57135 18.5296 3.95638 18.625 3.64144 18.9511C3.23977 19.3671 3.39883 20.0264 3.78953 20.3894C4.23183 20.8003 4.85826 20.8289 5.4272 20.76C5.90803 20.7139 6.3766 20.5815 6.81041 20.3691C7.24145 20.1573 7.57858 19.7931 7.75651 19.347C7.83684 19.1089 7.86569 18.8565 7.84116 18.6065C7.81663 18.3564 7.73927 18.1144 7.61421 17.8965C7.1119 16.9521 6.07175 16.468 5.04365 16.3841C4.51433 16.3426 3.98204 16.4065 3.47758 16.5722C2.97312 16.7378 2.50652 17.0018 2.10477 17.3489C1.3304 18.046 0.853568 19.0141 0.772869 20.0529C0.683128 21.1299 1.101 22.1758 1.71024 23.045C2.34805 23.9282 3.10916 24.7153 3.97035 25.3824C5.65396 26.7266 7.62882 27.658 9.73691 28.102C9.98766 28.1538 10.2397 28.1982 10.4932 28.2351C10.5738 28.2546 10.6589 28.2427 10.731 28.2017C10.8032 28.1607 10.857 28.0938 10.8816 28.0145C10.9032 27.9338 10.8922 27.8478 10.851 27.7751C10.8097 27.7024 10.7415 27.6489 10.6611 27.6262L10.6611 27.6262Z" fill="#55229E"/>
<path d="M58.8586 41.0877C60.406 41.0447 62.3318 40.991 63.8155 39.9072C64.2573 39.5712 64.6203 39.1427 64.879 38.6517C65.1378 38.1607 65.286 37.619 65.3134 37.0647C65.3437 36.2087 65.0344 35.4616 64.4426 34.9615C63.6677 34.3067 62.5361 34.1531 61.3167 34.5115L62.5801 25.2784L61.6526 25.1514L60.1673 36.006L60.9418 35.6506C61.8398 35.2388 63.0724 35.0292 63.8383 35.6764C64.0264 35.8457 64.1729 36.056 64.2665 36.291C64.3601 36.5261 64.3982 36.7796 64.3779 37.0318C64.3551 37.4443 64.2438 37.8472 64.0515 38.2129C63.8592 38.5786 63.5903 38.8986 63.2632 39.1511C62.1087 39.9945 60.5736 40.1033 58.8325 40.152L58.8586 41.0877Z" fill="#55229E"/>
<path d="M56.2939 26.0747H51.252V27.0109H56.2939V26.0747Z" fill="#55229E"/>
<path d="M36.6803 15.7045C36.3828 15.7045 29.3926 15.6934 29.3926 14.7278C29.3926 13.7623 36.3828 13.7512 36.6803 13.7512C36.9779 13.7512 43.9681 13.7623 43.9681 14.7278C43.9681 15.6934 36.9779 15.7045 36.6803 15.7045ZM29.6659 14.7278C29.8572 15.0206 32.4267 15.4351 36.6803 15.4351C40.934 15.4351 43.5035 15.0206 43.6948 14.7278C43.5035 14.4352 40.934 14.0206 36.6803 14.0206C32.4267 14.0206 29.8572 14.4352 29.6659 14.7278V14.7278Z" fill="#55229E"/>
<path d="M40.7492 14.2951C37.9958 14.2562 35.251 14.3261 32.5149 14.5047C31.5797 14.5658 30.7705 14.8963 30.7705 15.4519C30.7705 15.9164 31.5732 16.4606 32.5149 16.3991C35.2496 16.2205 37.9944 16.1506 40.7492 16.1894C42.9951 16.2211 42.9938 14.3268 40.7492 14.2951Z" fill="#55229E" fill-opacity="0.2"/>
<path d="M33.8597 15.4917C32.8168 10.8609 30.3735 7.1529 26.5298 4.36771L31.0761 1.37198C34.5607 4.27796 37.1105 8.14749 38.4061 12.4959L33.8597 15.4917Z" fill="#C4C4C4" stroke="#3F3D56" stroke-width="0.231684" stroke-miterlimit="10"/>
<path d="M33.7804 13.3243C33.0277 9.98209 31.2642 7.30589 28.49 5.29571L31.7713 3.13357C34.2863 5.23093 36.1266 8.02373 37.0616 11.1622L33.7804 13.3243Z" fill="#57B894" stroke="#3F3D56" stroke-width="0.231684" stroke-miterlimit="10"/>
<path d="M32.5172 8.19113C33.1157 9.09931 33.9906 9.57871 34.4714 9.26189C34.9522 8.94507 34.8568 7.95201 34.2584 7.04383C33.6599 6.13564 32.785 5.65625 32.3042 5.97307C31.8234 6.28988 31.9188 7.28294 32.5172 8.19113Z" stroke="#3F3D56" stroke-width="0.231684" stroke-miterlimit="10"/>
<path d="M31.7482 7.86569C32.3466 8.77387 33.2215 9.25327 33.7023 8.93645C34.1831 8.61963 34.0878 7.62657 33.4893 6.71839C32.8909 5.8102 32.016 5.33081 31.5352 5.64763C31.0544 5.96444 31.1497 6.9575 31.7482 7.86569Z" fill="black"/>
<path d="M35.7915 14.707C37.0373 10.1267 36.6137 5.70631 34.5206 1.44595L39.9403 0.926549C41.6595 5.12557 42.1016 9.73851 41.2112 14.1876L35.7915 14.707Z" fill="#C4C4C4" stroke="#3F3D56" stroke-width="0.231684" stroke-miterlimit="10"/>
<path d="M36.7353 12.7546C37.6345 9.44875 37.3288 6.2584 35.8181 3.18353L39.7297 2.80866C40.9706 5.83925 41.2896 9.16859 40.647 12.3797L36.7353 12.7546Z" fill="#57B894" stroke="#3F3D56" stroke-width="0.231684" stroke-miterlimit="10"/>
<path d="M38.0224 7.62727C38.1261 8.70993 38.6749 9.54307 39.2481 9.48814C39.8212 9.43321 40.2018 8.51101 40.098 7.42835C39.9943 6.34569 39.4455 5.51255 38.8723 5.56748C38.2992 5.62241 37.9186 6.54461 38.0224 7.62727Z" stroke="#3F3D56" stroke-width="0.231684" stroke-miterlimit="10"/>
<path d="M37.4945 6.97957C37.5983 8.06223 38.1471 8.89537 38.7202 8.84044C39.2934 8.78551 39.674 7.86331 39.5702 6.78065C39.4664 5.69798 38.9177 4.86484 38.3445 4.91977C37.7713 4.9747 37.3908 5.8969 37.4945 6.97957Z" fill="black"/>
</svg>
