<svg width="955" height="1117" viewBox="0 0 955 1117" fill="none" xmlns="http://www.w3.org/2000/svg">
<rect width="884" height="1117" fill="#55229E" fill-opacity="0.63"/>
<path d="M955 1067.5C955 1134.6 900.603 1189 833.5 1189C766.397 1189 712 1134.6 712 1067.5C712 1000.4 766.397 946 833.5 946C900.603 946 955 1000.4 955 1067.5ZM729.306 1067.5C729.306 1125.05 775.955 1171.69 833.5 1171.69C891.045 1171.69 937.694 1125.05 937.694 1067.5C937.694 1009.95 891.045 963.306 833.5 963.306C775.955 963.306 729.306 1009.95 729.306 1067.5Z" fill="white" fill-opacity="0.3"/>
<path d="M928 1067.5C928 1119.69 885.691 1162 833.5 1162C781.309 1162 739 1119.69 739 1067.5C739 1015.31 781.309 973 833.5 973C885.691 973 928 1015.31 928 1067.5ZM756.46 1067.5C756.46 1110.05 790.952 1144.54 833.5 1144.54C876.048 1144.54 910.54 1110.05 910.54 1067.5C910.54 1024.95 876.048 990.46 833.5 990.46C790.952 990.46 756.46 1024.95 756.46 1067.5Z" fill="white" fill-opacity="0.3"/>
<path d="M177 1067.5C177 1134.6 122.603 1189 55.5 1189C-11.6026 1189 -66 1134.6 -66 1067.5C-66 1000.4 -11.6026 946 55.5 946C122.603 946 177 1000.4 177 1067.5ZM-48.6945 1067.5C-48.6945 1125.05 -2.04503 1171.69 55.5 1171.69C113.045 1171.69 159.694 1125.05 159.694 1067.5C159.694 1009.95 113.045 963.306 55.5 963.306C-2.04503 963.306 -48.6945 1009.95 -48.6945 1067.5Z" fill="white" fill-opacity="0.3"/>
<path d="M150 1067.5C150 1119.69 107.691 1162 55.5 1162C3.30909 1162 -39 1119.69 -39 1067.5C-39 1015.31 3.30909 973 55.5 973C107.691 973 150 1015.31 150 1067.5ZM-21.5402 1067.5C-21.5402 1110.05 12.9519 1144.54 55.5 1144.54C98.0481 1144.54 132.54 1110.05 132.54 1067.5C132.54 1024.95 98.0481 990.46 55.5 990.46C12.9519 990.46 -21.5402 1024.95 -21.5402 1067.5Z" fill="white" fill-opacity="0.3"/>
<path d="M165 47.5C165 114.603 110.603 169 43.5 169C-23.6026 169 -78 114.603 -78 47.5C-78 -19.6026 -23.6026 -74 43.5 -74C110.603 -74 165 -19.6026 165 47.5ZM-60.6945 47.5C-60.6945 105.045 -14.045 151.694 43.5 151.694C101.045 151.694 147.694 105.045 147.694 47.5C147.694 -10.045 101.045 -56.6945 43.5 -56.6945C-14.045 -56.6945 -60.6945 -10.045 -60.6945 47.5Z" fill="white" fill-opacity="0.3"/>
<path d="M138 47.5C138 99.6909 95.6909 142 43.5 142C-8.69091 142 -51 99.6909 -51 47.5C-51 -4.69091 -8.69091 -47 43.5 -47C95.6909 -47 138 -4.69091 138 47.5ZM-33.5402 47.5C-33.5402 90.0481 0.951893 124.54 43.5 124.54C86.0481 124.54 120.54 90.0481 120.54 47.5C120.54 4.95189 86.0481 -29.5402 43.5 -29.5402C0.951893 -29.5402 -33.5402 4.95189 -33.5402 47.5Z" fill="white" fill-opacity="0.3"/>
<path d="M712 47.5C712 114.603 766.397 169 833.5 169C900.603 169 955 114.603 955 47.5C955 -19.6026 900.603 -74 833.5 -74C766.397 -74 712 -19.6026 712 47.5ZM937.694 47.5C937.694 105.045 891.045 151.694 833.5 151.694C775.955 151.694 729.306 105.045 729.306 47.5C729.306 -10.045 775.955 -56.6945 833.5 -56.6945C891.045 -56.6945 937.694 -10.045 937.694 47.5Z" fill="white" fill-opacity="0.3"/>
<path d="M739 47.5C739 99.6909 781.309 142 833.5 142C885.691 142 928 99.6909 928 47.5C928 -4.69091 885.691 -47 833.5 -47C781.309 -47 739 -4.69091 739 47.5ZM910.54 47.5C910.54 90.0481 876.048 124.54 833.5 124.54C790.952 124.54 756.46 90.0481 756.46 47.5C756.46 4.95189 790.952 -29.5402 833.5 -29.5402C876.048 -29.5402 910.54 4.95189 910.54 47.5Z" fill="white" fill-opacity="0.3"/>
<path d="M606.997 771H592.769L586 732L607 732.001L606.997 771Z" fill="#A0616A"/>
<path d="M610.999 788L566 787.998V787.274C566 784.349 566.453 781.452 567.333 778.75C568.213 776.048 569.504 773.592 571.13 771.524C572.756 769.455 574.687 767.815 576.812 766.695C578.937 765.576 581.215 765 583.515 765H583.516L611 765.001L610.999 788Z" fill="#2F2E41"/>
<path d="M663.997 771H649.769L643 732L664 732.001L663.997 771Z" fill="#A0616A"/>
<path d="M665.999 788L619 787.998V787.274C619 784.349 619.473 781.452 620.392 778.75C621.312 776.048 622.659 773.592 624.358 771.524C626.057 769.455 628.073 767.815 630.293 766.695C632.512 765.576 634.891 765 637.293 765H637.295L666 765.001L665.999 788Z" fill="#55229E"/>
<path d="M837.815 788H386.185C385.871 788 385.57 787.842 385.347 787.561C385.125 787.279 385 786.898 385 786.5C385 786.102 385.125 785.721 385.347 785.439C385.57 785.158 385.871 785 386.185 785H837.815C838.129 785 838.431 785.158 838.653 785.439C838.875 785.721 839 786.102 839 786.5C839 786.898 838.875 787.279 838.653 787.561C838.431 787.842 838.129 788 837.815 788Z" fill="#3F3D56"/>
<path d="M264.356 447H122.644C116.641 446.994 110.885 444.718 106.64 440.672C102.395 436.626 100.007 431.14 100 425.418V361.582C100.007 355.86 102.395 350.374 106.64 346.328C110.885 342.282 116.641 340.006 122.644 340H264.356C270.359 340.006 276.115 342.282 280.36 346.328C284.605 350.374 286.993 355.86 287 361.582V425.418C286.993 431.14 284.605 436.626 280.36 440.672C276.115 444.718 270.359 446.994 264.356 447Z" fill="#55229E"/>
<path d="M504.356 447H362.644C356.641 446.994 350.885 444.718 346.64 440.672C342.395 436.626 340.007 431.14 340 425.418V361.582C340.007 355.86 342.395 350.374 346.64 346.328C350.885 342.282 356.641 340.006 362.644 340H504.356C510.359 340.006 516.115 342.282 520.36 346.328C524.605 350.374 526.993 355.86 527 361.582V425.418C526.993 431.14 524.605 436.626 520.36 440.672C516.115 444.718 510.359 446.994 504.356 447Z" fill="#55229E"/>
<path d="M363.162 611.59H503.838C509.628 611.584 515.166 609.399 519.238 605.535C523.308 601.675 525.583 596.458 525.59 591.033C525.59 591.032 525.59 591.032 525.59 591.031M363.162 611.59L527 591.033L525.59 591.031M363.162 611.59C357.372 611.584 351.834 609.399 347.762 605.536C343.691 601.675 341.417 596.457 341.41 591.032V527.968C341.417 522.543 343.691 517.325 347.762 513.464C351.834 509.602 357.371 507.417 363.161 507.41H503.839C509.629 507.417 515.166 509.602 519.238 513.464C523.308 517.325 525.583 522.542 525.59 527.967M363.162 611.59L525.59 527.967M525.59 591.031V527.969M525.59 591.031V527.969M525.59 527.969L525.59 527.967M525.59 527.969L525.59 527.967" fill="#F2F2F2" stroke="#55229E" stroke-width="2.82036"/>
<path d="M123.162 611.59H263.838C269.628 611.584 275.165 609.399 279.238 605.535C283.308 601.675 285.583 596.458 285.59 591.033C285.59 591.032 285.59 591.032 285.59 591.031M123.162 611.59L287 591.033L285.59 591.031M123.162 611.59C117.372 611.584 111.834 609.399 107.762 605.535C103.692 601.675 101.417 596.457 101.41 591.032V527.968C101.417 522.543 103.691 517.325 107.762 513.465C111.834 509.602 117.371 507.417 123.161 507.41H263.839C269.629 507.417 275.166 509.602 279.238 513.464C283.308 517.325 285.583 522.542 285.59 527.967M123.162 611.59L285.59 527.967M285.59 591.031V527.969M285.59 591.031V527.969M285.59 527.969L285.59 527.967M285.59 527.969L285.59 527.967" fill="#F2F2F2" stroke="#55229E" stroke-width="2.82036"/>
<path d="M604.534 611.59H747.466C753.362 611.584 758.996 609.394 763.138 605.528C767.275 601.665 769.583 596.45 769.59 591.033C769.59 591.032 769.59 591.032 769.59 591.031M604.534 611.59L771 591.033L769.59 591.031M604.534 611.59C598.638 611.584 593.004 609.394 588.862 605.528C584.725 601.665 582.417 596.45 582.41 591.032V527.968C582.417 522.55 584.725 517.335 588.862 513.472C593.003 509.606 598.638 507.417 604.533 507.41H747.467C753.362 507.417 758.996 509.606 763.138 513.472C767.275 517.335 769.583 522.55 769.59 527.967M604.534 611.59L769.59 527.967M769.59 591.031V527.969M769.59 591.031V527.969M769.59 527.969L769.59 527.967M769.59 527.969L769.59 527.967" fill="#F2F2F2" stroke="#55229E" stroke-width="2.82036"/>
<path d="M604.534 445.59H747.466C753.362 445.584 758.996 443.394 763.138 439.528C767.275 435.665 769.583 430.45 769.59 425.033C769.59 425.032 769.59 425.032 769.59 425.031M604.534 445.59L771 425.033L769.59 425.031M604.534 445.59C598.638 445.584 593.004 443.394 588.862 439.528C584.725 435.665 582.417 430.45 582.41 425.032V361.968C582.417 356.55 584.725 351.335 588.862 347.472C593.003 343.606 598.638 341.417 604.533 341.41H747.467C753.362 341.417 758.996 343.606 763.138 347.472C767.275 351.335 769.583 356.55 769.59 361.967M604.534 445.59L769.59 361.967M769.59 425.031V361.969M769.59 425.031V361.969M769.59 361.969L769.59 361.967M769.59 361.969L769.59 361.967" fill="#F2F2F2" stroke="#55229E" stroke-width="2.82036"/>
<path d="M195.5 433C216.763 433 234 415.763 234 394.5C234 373.237 216.763 356 195.5 356C174.237 356 157 373.237 157 394.5C157 415.763 174.237 433 195.5 433Z" fill="white"/>
<path d="M191.094 407C190.16 407.001 189.251 406.791 188.504 406.4L188.457 406.376L178.702 401.171C178.249 400.93 177.869 400.629 177.584 400.286C177.298 399.943 177.113 399.563 177.038 399.17C176.963 398.777 177 398.377 177.147 397.993C177.294 397.61 177.547 397.25 177.894 396.935C178.24 396.62 178.672 396.356 179.165 396.157C179.659 395.959 180.203 395.83 180.768 395.778C181.332 395.726 181.906 395.752 182.456 395.855C183.006 395.958 183.522 396.135 183.974 396.377L190.293 399.753L205.226 386.183C205.572 385.868 206.004 385.604 206.497 385.405C206.99 385.207 207.534 385.078 208.098 385.026C208.662 384.974 209.236 385 209.786 385.103C210.336 385.205 210.851 385.382 211.303 385.624L211.21 385.711L211.305 385.625C212.216 386.113 212.812 386.833 212.963 387.626C213.113 388.42 212.805 389.223 212.107 389.859L194.542 405.821C194.136 406.189 193.614 406.487 193.016 406.691C192.418 406.896 191.76 407.001 191.094 407Z" fill="#55229E"/>
<path d="M435.5 433C456.763 433 474 415.763 474 394.5C474 373.237 456.763 356 435.5 356C414.237 356 397 373.237 397 394.5C397 415.763 414.237 433 435.5 433Z" fill="white"/>
<path d="M431.701 407C430.793 407.001 429.909 406.791 429.182 406.4L429.137 406.376L419.651 401.171C418.764 400.684 418.183 399.964 418.036 399.17C417.89 398.376 418.189 397.573 418.869 396.937C419.549 396.301 420.553 395.885 421.661 395.78C422.769 395.675 423.89 395.889 424.777 396.377L430.922 399.753L445.441 386.182C445.778 385.868 446.198 385.604 446.677 385.405C447.156 385.207 447.685 385.078 448.234 385.026C448.782 384.974 449.34 385 449.875 385.103C450.409 385.205 450.91 385.382 451.35 385.624L451.259 385.711L451.352 385.625C452.238 386.113 452.817 386.833 452.964 387.626C453.11 388.42 452.811 389.223 452.132 389.859L435.054 405.821C434.659 406.189 434.151 406.487 433.569 406.691C432.988 406.896 432.348 407.001 431.701 407Z" fill="#55229E"/>
<path d="M486.834 399.309C486.9 399.966 486.909 400.628 486.86 401.287L539.089 437.394L553.9 431.931L566 450.932L540.826 462.892C538.793 463.858 536.465 464.206 534.193 463.882C531.92 463.559 529.826 462.583 528.224 461.099L476.019 412.754C473.256 413.314 470.368 413.105 467.74 412.154C465.112 411.204 462.869 409.558 461.308 407.434C459.747 405.311 458.943 402.81 459.003 400.266C459.063 397.722 459.983 395.255 461.642 393.192C463.301 391.13 465.62 389.57 468.29 388.72C470.96 387.87 473.855 387.77 476.59 388.434C479.325 389.098 481.769 390.494 483.599 392.437C485.429 394.379 486.557 396.776 486.833 399.309H486.834Z" fill="#A0616A"/>
<path d="M589.455 753.774C588.167 753.775 586.924 753.294 585.971 752.423C585.017 751.553 584.422 750.356 584.303 749.069L572 583.03L572.581 582.983L657.243 576L657.266 576.604L663.996 748.606C664.022 749.305 663.908 750.002 663.659 750.655C663.411 751.308 663.034 751.904 662.55 752.408C662.067 752.911 661.487 753.312 660.846 753.586C660.204 753.859 659.515 754 658.818 754H642.218C640.979 754.006 639.779 753.563 638.838 752.754C637.897 751.944 637.279 750.821 637.096 749.591L614.554 610.644C614.532 610.5 614.457 610.37 614.343 610.28C614.23 610.189 614.087 610.145 613.943 610.155C613.799 610.166 613.664 610.231 613.565 610.336C613.466 610.442 613.41 610.582 613.409 610.727L612.386 747.916C612.376 749.241 611.862 750.512 610.95 751.471C610.038 752.429 608.796 753.001 607.477 753.072L589.734 753.766C589.64 753.772 589.547 753.774 589.455 753.774Z" fill="#2F2E41"/>
<path d="M603.5 376C619.24 376 632 364.136 632 349.5C632 334.864 619.24 323 603.5 323C587.76 323 575 334.864 575 349.5C575 364.136 587.76 376 603.5 376Z" fill="#A0616A"/>
<path d="M607.023 593C594.216 592.964 581.471 591.313 569.124 588.091C567.936 587.764 566.903 587.058 566.2 586.093C565.496 585.127 565.166 583.962 565.263 582.793C569.208 526.612 570.135 483.014 561.841 452.849C558.305 439.992 559.91 426.451 566.244 415.699C575.776 399.517 593.296 389.668 611.984 390.009C612.877 390.025 613.779 390.055 614.69 390.099C643.051 391.483 665.15 415.797 663.954 444.3L658.249 580.156C658.228 581.148 657.898 582.111 657.3 582.924C656.703 583.738 655.864 584.366 654.89 584.728C639.587 590.184 623.373 592.986 607.023 593Z" fill="#55229E"/>
<path d="M567.705 461.662L546.496 436.784C545.893 436.076 545.455 435.252 545.215 434.368C544.974 433.484 544.935 432.56 545.101 431.661C545.266 430.761 545.633 429.906 546.175 429.154C546.717 428.402 547.422 427.77 548.242 427.303L576.971 410.915C580.772 407.98 585.634 406.607 590.491 407.098C595.348 407.588 599.803 409.903 602.879 413.533C605.956 417.164 607.403 421.815 606.903 426.465C606.403 431.115 603.997 435.386 600.212 438.341L577.758 461.926C577.115 462.601 576.328 463.136 575.45 463.493C574.571 463.851 573.623 464.023 572.669 463.998C571.714 463.973 570.777 463.751 569.921 463.348C569.064 462.945 568.308 462.37 567.705 461.662Z" fill="#55229E"/>
<path d="M634.573 463.428C633.665 463.044 632.855 462.479 632.199 461.773C631.542 461.066 631.055 460.234 630.771 459.333L620.817 427.877C618.657 423.521 618.413 418.533 620.139 414.008C621.865 409.482 625.421 405.788 630.026 403.736C634.631 401.684 639.91 401.441 644.705 403.061C649.499 404.681 653.418 408.031 655.601 412.377L674.849 439.84C675.399 440.624 675.763 441.51 675.917 442.439C676.071 443.368 676.011 444.317 675.742 445.222C675.472 446.127 675 446.966 674.356 447.683C673.712 448.4 672.913 448.977 672.011 449.376L640.339 463.382C639.438 463.781 638.456 463.992 637.461 464C636.466 464.008 635.481 463.812 634.573 463.428Z" fill="#55229E"/>
<path d="M617.481 372.615L594.919 367.912C592.592 367.427 589.796 366.501 589.473 364.347C589.04 361.451 593.614 359.435 593.192 356.538C592.784 353.732 588.616 353.371 585.645 352.543C582.878 351.658 580.596 349.828 579.285 347.439C577.973 345.051 577.733 342.29 578.616 339.743C575.401 343.87 568.056 344.223 563.886 340.88C559.716 337.537 558.916 331.471 561.42 326.955C562.773 324.736 564.681 322.84 566.991 321.42C569.3 320 571.945 319.096 574.709 318.783C580.269 318.209 585.889 319.163 590.848 321.523C591.178 318.325 595.562 317.029 599.089 317C606.415 317.078 613.532 319.234 619.449 323.167C625.367 327.101 629.791 332.617 632.106 338.948C636.433 351.648 633.539 365.569 621.431 373L617.481 372.615Z" fill="#2F2E41"/>
<path d="M207 582C220.255 582 231 571.255 231 558C231 544.745 220.255 534 207 534C193.745 534 183 544.745 183 558C183 571.255 193.745 582 207 582Z" fill="#55229E"/>
<path d="M684.5 582C697.479 582 708 571.255 708 558C708 544.745 697.479 534 684.5 534C671.521 534 661 544.745 661 558C661 571.255 671.521 582 684.5 582Z" fill="#55229E"/>
<path d="M695.678 566.916C696.929 565.588 697.864 564.01 698.419 562.293C698.974 560.576 699.134 558.761 698.888 556.977C698.643 555.194 697.997 553.484 696.998 551.968C695.998 550.453 694.668 549.169 693.102 548.207L671.848 438L646 447.308L675.02 552.71C673.529 555.372 673.096 558.473 673.802 561.424C674.508 564.376 676.305 566.973 678.851 568.724C681.398 570.475 684.517 571.258 687.618 570.925C690.72 570.592 693.587 569.166 695.678 566.916Z" fill="#A0616A"/>
</svg>
