<svg width="61" height="40" viewBox="0 0 61 40" fill="none" xmlns="http://www.w3.org/2000/svg">
<path d="M35.3096 22.626C37.854 15.7482 37.8075 8.88786 35.17 2.04513L43.5813 1.98808C45.6519 8.68522 45.7004 15.8444 43.7209 22.569L35.3096 22.626Z" fill="#C4C4C4" stroke="#3F3D56" stroke-width="0.357937" stroke-miterlimit="10"/>
<path d="M37.0292 19.7508C38.8657 14.7868 38.8321 9.83542 36.9285 4.89675L42.9993 4.85558C44.4937 9.68916 44.5287 14.8562 43.1 19.7096L37.0292 19.7508Z" fill="#57B894" stroke="#3F3D56" stroke-width="0.357937" stroke-miterlimit="10"/>
<path d="M39.7119 12.0367C39.7233 13.7169 40.4536 15.0742 41.3432 15.0681C42.2327 15.0621 42.9446 13.6951 42.9332 12.0148C42.9218 10.3345 42.1915 8.9773 41.3019 8.98334C40.4124 8.98937 39.7005 10.3564 39.7119 12.0367Z" stroke="#3F3D56" stroke-width="0.357937" stroke-miterlimit="10"/>
<path d="M38.989 10.9678C39.0004 12.6481 39.7307 14.0053 40.6203 13.9993C41.5098 13.9932 42.2217 12.6262 42.2103 10.946C42.1989 9.26569 41.4686 7.90846 40.579 7.91449C39.6895 7.92052 38.9776 9.28754 38.989 10.9678Z" fill="black"/>
<path d="M35.3499 20.1264C41.1433 15.6303 44.7274 9.78046 46.1021 2.57702L53.2745 6.97142C51.4953 13.7518 47.755 19.8564 42.5222 24.5208L35.3499 20.1264Z" fill="#C4C4C4" stroke="#3F3D56" stroke-width="0.357937" stroke-miterlimit="10"/>
<path d="M38.3288 18.5937C42.5102 15.3486 45.097 11.1266 46.0892 5.92758L51.2657 9.0992C49.9816 13.9928 47.2821 18.3988 43.5054 21.7653L38.3288 18.5937Z" fill="#57B894" stroke="#3F3D56" stroke-width="0.357937" stroke-miterlimit="10"/>
<path d="M44.6805 13.4604C43.8027 14.8931 43.706 16.4314 44.4645 16.8961C45.223 17.3609 46.5495 16.5761 47.4274 15.1433C48.3052 13.7106 48.4019 12.1723 47.6434 11.7076C46.8849 11.2429 45.5584 12.0276 44.6805 13.4604Z" stroke="#3F3D56" stroke-width="0.357937" stroke-miterlimit="10"/>
<path d="M44.6314 12.1708C43.7536 13.6036 43.6569 15.1418 44.4154 15.6066C45.1739 16.0713 46.5005 15.2866 47.3783 13.8538C48.2561 12.421 48.3529 10.8828 47.5943 10.418C46.8358 9.9533 45.5093 10.738 44.6314 12.1708Z" fill="black"/>
<path d="M37.6973 17.6822C45.0027 17.0421 51.1847 14.0673 56.2431 8.75764L59.8905 16.3372C54.7213 21.0721 48.2701 24.1765 41.3447 25.2618L37.6973 17.6822Z" fill="#C4C4C4" stroke="#3F3D56" stroke-width="0.357937" stroke-miterlimit="10"/>
<path d="M41.0319 18.0079C46.3045 17.5459 50.7662 15.3988 54.4171 11.5667L57.0496 17.0371C53.3188 20.4545 48.6627 22.6951 43.6644 23.4783L41.0319 18.0079Z" fill="#57B894" stroke="#3F3D56" stroke-width="0.357937" stroke-miterlimit="10"/>
<path d="M49.1523 17.1352C47.6382 17.8638 46.7235 19.1043 47.1092 19.9059C47.495 20.7075 49.0351 20.7667 50.5492 20.038C52.0633 19.3094 52.9781 18.0689 52.5923 17.2673C52.2066 16.4658 50.6665 16.4066 49.1523 17.1352Z" stroke="#3F3D56" stroke-width="0.357937" stroke-miterlimit="10"/>
<path d="M49.8093 16.0244C48.2952 16.753 47.3805 17.9935 47.7662 18.7951C48.152 19.5967 49.6921 19.6558 51.2062 18.9272C52.7203 18.1986 53.6351 16.9581 53.2493 16.1565C52.8636 15.3549 51.3234 15.2958 49.8093 16.0244Z" fill="black"/>
<path d="M28.6594 23.5978C28.6594 23.5978 1.92592 27.8003 1.76696 21.3136C1.608 14.8268 10.1744 14.5655 10.1744 14.5655C10.1744 14.5655 15.4785 18.0728 24.0449 17.8115L31.8705 18.7893C31.8705 18.7893 42.3544 14.0954 42.4435 18.3227C42.5327 22.5501 34.1156 24.7827 28.6594 23.5978Z" fill="#9F616A"/>
</svg>
