<svg width="889" height="1117" viewBox="0 0 889 1117" fill="none" xmlns="http://www.w3.org/2000/svg">
<rect width="889" height="1117" fill="#55229E" fill-opacity="0.63"/>
<path d="M437.25 789.499H100.883C100.649 789.499 100.424 789.406 100.259 789.24C100.093 789.074 100 788.85 100 788.616C100 788.382 100.093 788.157 100.259 787.992C100.424 787.826 100.649 787.733 100.883 787.733H437.25C437.485 787.733 437.709 787.826 437.875 787.992C438.04 788.157 438.133 788.382 438.133 788.616C438.133 788.85 438.04 789.074 437.875 789.24C437.709 789.406 437.485 789.499 437.25 789.499Z" fill="black"/>
<path d="M834.724 574.072H669.482C668.463 574.071 667.486 573.666 666.766 572.945C666.045 572.225 665.64 571.248 665.639 570.229V468.01C665.64 466.991 666.045 466.014 666.766 465.294C667.486 464.573 668.463 464.168 669.482 464.167H834.724C835.743 464.168 836.72 464.573 837.44 465.294C838.161 466.014 838.566 466.991 838.567 468.01V570.229C838.566 571.248 838.161 572.225 837.44 572.945C836.72 573.666 835.743 574.071 834.724 574.072Z" fill="white"/>
<path d="M834.724 574.072H669.482C668.463 574.071 667.486 573.666 666.766 572.945C666.045 572.225 665.64 571.248 665.639 570.229V468.01C665.64 466.991 666.045 466.014 666.766 465.294C667.486 464.573 668.463 464.168 669.482 464.167H834.724C835.743 464.168 836.72 464.573 837.44 465.294C838.161 466.014 838.566 466.991 838.567 468.01V570.229C838.566 571.248 838.161 572.225 837.44 572.945C836.72 573.666 835.743 574.071 834.724 574.072ZM669.482 465.704C668.87 465.705 668.284 465.948 667.852 466.38C667.42 466.812 667.176 467.398 667.176 468.01V570.229C667.176 570.841 667.42 571.427 667.852 571.859C668.284 572.291 668.87 572.535 669.482 572.535H834.724C835.335 572.535 835.922 572.291 836.354 571.859C836.786 571.427 837.029 570.841 837.03 570.229V468.01C837.029 467.398 836.786 466.812 836.354 466.38C835.922 465.948 835.335 465.705 834.724 465.704H669.482Z" fill="#55229E"/>
<path d="M802.06 498.305H702.146C701.229 498.305 700.349 497.941 699.7 497.292C699.052 496.644 698.688 495.764 698.688 494.847C698.688 493.93 699.052 493.05 699.7 492.401C700.349 491.753 701.229 491.388 702.146 491.388H802.06C802.978 491.388 803.857 491.753 804.506 492.401C805.154 493.05 805.519 493.93 805.519 494.847C805.519 495.764 805.154 496.644 804.506 497.292C803.857 497.941 802.978 498.305 802.06 498.305V498.305Z" fill="#CCCCCC"/>
<path d="M802.06 522.131H702.146C701.229 522.131 700.349 521.766 699.7 521.118C699.052 520.469 698.688 519.589 698.688 518.672C698.688 517.755 699.052 516.875 699.7 516.227C700.349 515.578 701.229 515.214 702.146 515.214H802.06C802.978 515.214 803.857 515.578 804.506 516.227C805.154 516.875 805.519 517.755 805.519 518.672C805.519 519.589 805.154 520.469 804.506 521.118C803.857 521.766 802.978 522.131 802.06 522.131V522.131Z" fill="#CCCCCC"/>
<path d="M793.159 559.907C799.985 559.907 805.519 554.373 805.519 547.547C805.519 540.721 799.985 535.187 793.159 535.187C786.333 535.187 780.799 540.721 780.799 547.547C780.799 554.373 786.333 559.907 793.159 559.907Z" fill="#55229E"/>
<path d="M722.161 505.651H556.918C555.899 505.65 554.922 505.245 554.202 504.524C553.482 503.804 553.076 502.827 553.075 501.808V399.588C553.076 398.569 553.482 397.593 554.202 396.872C554.922 396.152 555.899 395.747 556.918 395.745H722.161C723.18 395.747 724.156 396.152 724.877 396.872C725.597 397.593 726.002 398.569 726.004 399.588V501.808C726.002 502.827 725.597 503.804 724.877 504.524C724.156 505.245 723.18 505.65 722.161 505.651V505.651Z" fill="white"/>
<path d="M722.161 505.651H556.918C555.899 505.65 554.922 505.245 554.202 504.524C553.482 503.804 553.076 502.827 553.075 501.808V399.588C553.076 398.569 553.482 397.593 554.202 396.872C554.922 396.152 555.899 395.747 556.918 395.745H722.161C723.18 395.747 724.156 396.152 724.877 396.872C725.597 397.593 726.002 398.569 726.004 399.588V501.808C726.002 502.827 725.597 503.804 724.877 504.524C724.156 505.245 723.18 505.65 722.161 505.651V505.651ZM556.918 397.283C556.307 397.283 555.721 397.526 555.288 397.959C554.856 398.391 554.613 398.977 554.612 399.588V501.808C554.613 502.419 554.856 503.005 555.288 503.438C555.721 503.87 556.307 504.113 556.918 504.114H722.161C722.772 504.113 723.358 503.87 723.79 503.438C724.223 503.005 724.466 502.419 724.466 501.808V399.588C724.466 398.977 724.223 398.391 723.79 397.959C723.358 397.526 722.772 397.283 722.161 397.283H556.918Z" fill="#55229E"/>
<path d="M689.496 429.884H589.582C588.664 429.884 587.785 429.52 587.136 428.871C586.487 428.223 586.123 427.343 586.123 426.426C586.123 425.508 586.487 424.629 587.136 423.98C587.785 423.331 588.664 422.967 589.582 422.967H689.496C690.413 422.967 691.293 423.331 691.941 423.98C692.59 424.629 692.954 425.508 692.954 426.426C692.954 427.343 692.59 428.223 691.941 428.871C691.293 429.52 690.413 429.884 689.496 429.884V429.884Z" fill="#CCCCCC"/>
<path d="M689.496 453.71H589.582C588.664 453.71 587.785 453.345 587.136 452.697C586.487 452.048 586.123 451.168 586.123 450.251C586.123 449.334 586.487 448.454 587.136 447.805C587.785 447.157 588.664 446.792 589.582 446.792H689.496C690.413 446.792 691.293 447.157 691.941 447.805C692.59 448.454 692.954 449.334 692.954 450.251C692.954 451.168 692.59 452.048 691.941 452.697C691.293 453.345 690.413 453.71 689.496 453.71V453.71Z" fill="#CCCCCC"/>
<path d="M680.595 491.486C687.422 491.486 692.955 485.952 692.955 479.126C692.955 472.3 687.422 466.766 680.595 466.766C673.769 466.766 668.235 472.3 668.235 479.126C668.235 485.952 673.769 491.486 680.595 491.486Z" fill="#55229E"/>
<path d="M379.615 490.398C378.175 490.294 376.73 490.507 375.382 491.022C374.033 491.537 372.814 492.341 371.81 493.378C370.806 494.415 370.042 495.659 369.571 497.024C369.099 498.388 368.933 499.839 369.084 501.275L337.316 516.167L352.865 525.688L380.648 510.086C383.043 509.673 385.203 508.397 386.72 506.498C388.236 504.599 389.003 502.21 388.876 499.783C388.748 497.356 387.735 495.061 386.028 493.331C384.321 491.601 382.039 490.558 379.615 490.398V490.398Z" fill="#A0616A"/>
<path d="M248.16 776.936L259.131 776.935L264.351 734.618L248.158 734.619L248.16 776.936Z" fill="#FFB6B6"/>
<path d="M245.362 773.354L266.968 773.353H266.969C270.621 773.353 274.123 774.804 276.705 777.386C279.287 779.968 280.738 783.47 280.738 787.121V787.569L245.363 787.57L245.362 773.354Z" fill="#2F2E41"/>
<path d="M304.142 776.936L315.114 776.935L320.333 734.618L304.141 734.619L304.142 776.936Z" fill="#FFB6B6"/>
<path d="M301.344 773.354L322.95 773.353H322.951C326.602 773.353 330.104 774.804 332.686 777.386C335.269 779.968 336.719 783.47 336.72 787.121V787.569L301.344 787.57L301.344 773.354Z" fill="#2F2E41"/>
<path d="M311.47 557.448L317.039 569.437L327.078 676.649L319.274 768.799H301.023L279.486 623.548L269.371 765.453L244.744 764.459L240.017 572.067L311.47 557.448Z" fill="black"/>
<path d="M222.734 458.511L245.82 449.119L278.405 450.946L307.374 461.503L317.039 569.437C291.837 583.199 266.308 586.955 240.335 577.114L216.229 506.815L222.734 458.511Z" fill="#55229E"/>
<path d="M298.361 464.357L308.605 461.503C308.605 461.503 316.354 456.465 318.904 471.442C321.453 486.419 334.572 509.715 334.572 509.715L357.029 497.747L367.426 520.453L331.961 541.936L294.613 504.305L298.361 464.357Z" fill="#55229E"/>
<path d="M242.166 429.122C240.922 426.299 240.246 423.258 240.177 420.174C240.108 417.09 240.647 414.022 241.763 411.147C242.88 408.271 244.552 405.643 246.684 403.413C248.816 401.183 251.366 399.395 254.189 398.151C257.012 396.907 260.053 396.231 263.137 396.162C266.221 396.093 269.289 396.632 272.165 397.749C275.041 398.865 277.668 400.537 279.898 402.669C282.128 404.801 283.916 407.351 285.16 410.174L285.294 410.485C287.766 416.206 287.864 422.674 285.567 428.466C284.43 431.335 282.739 433.951 280.59 436.166C278.442 438.38 275.878 440.15 273.046 441.374C267.325 443.846 260.857 443.944 255.065 441.647C249.272 439.35 244.629 434.846 242.157 429.126L242.166 429.122Z" fill="#A0616A"/>
<path d="M274.06 407.621C278.944 408.508 286.504 411.583 290.699 407.975C288.627 405.554 286.021 403.648 283.086 402.407C282.508 402.215 281.973 401.912 281.51 401.516C280.08 400.071 281.185 397.58 280.531 395.626C280.213 394.912 279.733 394.281 279.13 393.784C278.527 393.286 277.817 392.936 277.055 392.76C275.599 392.324 274.073 392.254 272.643 391.725C269.258 390.453 266.851 386.812 263.382 385.823C260.359 384.949 257.317 386.308 254.708 387.894C252.099 389.48 249.518 391.361 246.465 391.662C244.184 391.87 242.741 395.622 240.451 395.732C235.652 395.965 235.919 392.803 235.564 397.844C235.359 400.852 231.061 406.836 231.131 409.871C231.202 411.859 230.85 413.828 230.907 415.823C231.036 419.621 232.559 423.239 235.186 425.986C237.371 428.232 240.212 429.747 242.051 432.308C243.008 433.668 243.671 435.254 244.784 436.484C245.897 437.715 247.783 438.455 249.025 437.577C250.268 436.698 250.291 434.798 250.908 433.352C251.286 432.465 251.932 431.719 252.755 431.218C253.578 430.716 254.538 430.485 255.499 430.557C256.498 430.687 257.44 431.094 258.22 431.73C259 432.367 259.587 433.209 259.914 434.161C259.332 430.965 257.799 427.97 257.216 424.772C256.633 421.573 257.392 417.753 260.147 416.504C261.329 415.954 262.926 415.806 263.402 414.538C263.693 413.774 263.427 412.872 263.539 412.046C264.144 407.998 270.875 406.996 274.06 407.621Z" fill="#2F2E41"/>
<path d="M243.103 575.866C242.892 574.439 242.371 573.074 241.576 571.869C240.782 570.665 239.732 569.649 238.502 568.893C237.272 568.138 235.892 567.662 234.458 567.498C233.024 567.334 231.571 567.486 230.202 567.944L208.777 540.161L202.854 557.404L224.108 581.144C225.03 583.392 226.744 585.224 228.927 586.293C231.109 587.362 233.608 587.593 235.949 586.942C238.291 586.292 240.312 584.805 241.631 582.764C242.949 580.722 243.473 578.268 243.103 575.867V575.866Z" fill="#A0616A"/>
<path d="M230.135 463.752L222.734 458.511C222.734 458.511 205.804 457.542 203.341 471.442L172.297 522.511L210.788 575.612L229.449 555.968L205.902 528.452L225.672 492.153L230.135 463.752Z" fill="#55229E"/>
<path d="M410.433 471.844H410.045V461.208C410.045 460.4 409.886 459.599 409.576 458.852C409.267 458.105 408.814 457.427 408.242 456.855C407.67 456.284 406.992 455.83 406.245 455.521C405.498 455.211 404.698 455.052 403.889 455.052H381.356C380.548 455.052 379.747 455.211 379 455.521C378.253 455.83 377.575 456.284 377.003 456.855C376.432 457.427 375.978 458.105 375.669 458.852C375.359 459.599 375.2 460.4 375.2 461.208V519.557C375.2 520.365 375.359 521.166 375.669 521.912C375.978 522.659 376.432 523.338 377.003 523.91C377.575 524.481 378.253 524.935 379 525.244C379.747 525.553 380.548 525.712 381.356 525.712H403.889C404.698 525.712 405.498 525.553 406.245 525.244C406.992 524.935 407.67 524.481 408.242 523.91C408.814 523.338 409.267 522.659 409.576 521.912C409.886 521.166 410.045 520.365 410.045 519.557V479.414H410.433V471.844Z" fill="#3F3D56"/>
<path d="M404.138 456.654H401.197C401.332 456.985 401.384 457.345 401.347 457.702C401.311 458.058 401.187 458.4 400.987 458.697C400.788 458.994 400.518 459.238 400.202 459.406C399.886 459.575 399.533 459.663 399.175 459.663H386.266C385.908 459.663 385.555 459.575 385.239 459.406C384.923 459.238 384.653 458.994 384.453 458.697C384.253 458.4 384.13 458.058 384.093 457.701C384.057 457.345 384.108 456.985 384.244 456.654H381.496C380.277 456.654 379.108 457.138 378.246 458C377.384 458.862 376.899 460.032 376.899 461.251V519.514C376.899 520.733 377.384 521.903 378.246 522.765C379.108 523.627 380.277 524.111 381.496 524.111H404.138C405.358 524.111 406.527 523.627 407.389 522.765C408.251 521.903 408.735 520.733 408.735 519.514V461.251C408.735 460.032 408.251 458.862 407.389 458C406.527 457.138 405.358 456.654 404.138 456.654Z" fill="#55229E"/>
<path d="M607.389 435.906H442.147C441.128 435.904 440.151 435.499 439.431 434.779C438.71 434.058 438.305 433.082 438.304 432.063V329.843C438.305 328.824 438.71 327.847 439.431 327.127C440.151 326.406 441.128 326.001 442.147 326H607.389C608.408 326.001 609.385 326.406 610.105 327.127C610.826 327.847 611.231 328.824 611.232 329.843V432.063C611.231 433.082 610.826 434.058 610.105 434.779C609.385 435.499 608.408 435.904 607.389 435.906V435.906Z" fill="white"/>
<path d="M607.389 435.906H442.147C441.128 435.904 440.151 435.499 439.431 434.779C438.71 434.058 438.305 433.082 438.304 432.063V329.843C438.305 328.824 438.71 327.847 439.431 327.127C440.151 326.406 441.128 326.001 442.147 326H607.389C608.408 326.001 609.385 326.406 610.105 327.127C610.826 327.847 611.231 328.824 611.232 329.843V432.063C611.231 433.082 610.826 434.058 610.105 434.779C609.385 435.499 608.408 435.904 607.389 435.906V435.906ZM442.147 327.537C441.535 327.538 440.949 327.781 440.517 328.213C440.085 328.645 439.842 329.232 439.841 329.843V432.063C439.842 432.674 440.085 433.26 440.517 433.692C440.949 434.125 441.535 434.368 442.147 434.368H607.389C608.001 434.368 608.587 434.125 609.019 433.692C609.451 433.26 609.694 432.674 609.695 432.063V329.843C609.694 329.232 609.451 328.645 609.019 328.213C608.587 327.781 608.001 327.538 607.389 327.537H442.147Z" fill="#55229E"/>
<path d="M574.725 360.139H474.811C473.894 360.139 473.014 359.774 472.366 359.126C471.717 358.477 471.353 357.597 471.353 356.68C471.353 355.763 471.717 354.883 472.366 354.234C473.014 353.586 473.894 353.221 474.811 353.221H574.725C575.643 353.221 576.522 353.586 577.171 354.234C577.82 354.883 578.184 355.763 578.184 356.68C578.184 357.597 577.82 358.477 577.171 359.126C576.522 359.774 575.643 360.139 574.725 360.139V360.139Z" fill="#CCCCCC"/>
<path d="M574.725 383.964H474.811C473.894 383.964 473.014 383.6 472.366 382.951C471.717 382.303 471.353 381.423 471.353 380.506C471.353 379.588 471.717 378.709 472.366 378.06C473.014 377.411 473.894 377.047 474.811 377.047H574.725C575.643 377.047 576.522 377.411 577.171 378.06C577.82 378.709 578.184 379.588 578.184 380.506C578.184 381.423 577.82 382.303 577.171 382.951C576.522 383.6 575.643 383.964 574.725 383.964Z" fill="#CCCCCC"/>
<path d="M438 37C438 226.986 283.986 381 94 381C-95.986 381 -250 226.986 -250 37C-250 -152.986 -95.986 -307 94 -307C283.986 -307 438 -152.986 438 37ZM-201.003 37C-201.003 199.926 -68.9258 332.003 94 332.003C256.926 332.003 389.003 199.926 389.003 37C389.003 -125.926 256.926 -258.003 94 -258.003C-68.9258 -258.003 -201.003 -125.926 -201.003 37Z" fill="white" fill-opacity="0.3"/>
<path d="M361.555 36.9999C361.555 184.767 241.766 304.555 93.9989 304.555C-53.7679 304.555 -173.557 184.767 -173.557 36.9999C-173.557 -110.767 -53.7679 -230.556 93.9989 -230.556C241.766 -230.556 361.555 -110.767 361.555 36.9999ZM-124.123 36.9999C-124.123 157.465 -26.4665 255.122 93.9989 255.122C214.464 255.122 312.121 157.465 312.121 36.9999C312.121 -83.4655 214.464 -181.122 93.9989 -181.122C-26.4665 -181.122 -124.123 -83.4655 -124.123 36.9999Z" fill="white" fill-opacity="0.3"/>
</svg>
