<svg width="889" height="1117" viewBox="0 0 889 1117" fill="none" xmlns="http://www.w3.org/2000/svg">
<rect width="889" height="1117" fill="#55229E" fill-opacity="0.63"/>
<path d="M438 37C438 226.986 283.986 381 94 381C-95.986 381 -250 226.986 -250 37C-250 -152.986 -95.986 -307 94 -307C283.986 -307 438 -152.986 438 37ZM-201.003 37C-201.003 199.926 -68.9258 332.003 94 332.003C256.926 332.003 389.003 199.926 389.003 37C389.003 -125.926 256.926 -258.003 94 -258.003C-68.9258 -258.003 -201.003 -125.926 -201.003 37Z" fill="white" fill-opacity="0.3"/>
<path d="M361.555 36.9998C361.555 184.767 241.766 304.555 93.9992 304.555C-53.7677 304.555 -173.556 184.767 -173.556 36.9998C-173.556 -110.767 -53.7677 -230.556 93.9992 -230.556C241.766 -230.556 361.555 -110.767 361.555 36.9998ZM-124.123 36.9998C-124.123 157.465 -26.4662 255.122 93.9992 255.122C214.465 255.122 312.121 157.465 312.121 36.9998C312.121 -83.4656 214.465 -181.122 93.9992 -181.122C-26.4662 -181.122 -124.123 -83.4656 -124.123 36.9998Z" fill="white" fill-opacity="0.3"/>
<path d="M508.501 701.194C516.319 663.23 526.092 650.573 526.092 650.573L529.825 647.665L534.315 644.163L534.293 643.713L535.358 643.349L535.608 643.154L536.018 642.838L536.084 642.909L536.223 643.054L556.539 636.118L582.314 627.326L594.249 611.746C596.193 609.208 598.695 607.158 601.56 605.754C604.426 604.351 607.575 603.633 610.763 603.656L648.88 603.94C654.034 603.978 658.988 605.951 662.766 609.471L687.82 632.81L726.859 651.535L726.925 651.469L727.335 651.763L733.367 654.659L733.118 655.961L736.851 658.666C736.851 658.666 746.624 670.443 754.442 705.768C756.431 714.756 757.41 734.037 757.763 757.797C757.781 758.998 757.56 760.192 757.115 761.308C756.669 762.423 756.007 763.439 755.167 764.295C754.327 765.151 753.326 765.832 752.222 766.296C751.118 766.76 749.933 767 748.736 767H540.222V767H514.197C513.001 766.999 511.817 766.76 510.714 766.296C509.61 765.833 508.61 765.153 507.77 764.298C506.93 763.443 506.268 762.428 505.822 761.314C505.376 760.199 505.154 759.007 505.17 757.806C505.516 731.952 506.494 710.941 508.501 701.194Z" fill="#55229E"/>
<path d="M482.359 448.731C488.855 448.731 495.086 451.304 499.679 455.883C504.273 460.462 506.854 466.673 506.854 473.149C506.854 479.625 504.273 485.835 499.679 490.414C495.086 494.994 488.855 497.566 482.359 497.566H253.495C246.999 497.566 240.768 494.994 236.175 490.414C231.581 485.835 229 479.625 229 473.149C229 466.673 231.581 460.462 236.175 455.883C240.768 451.304 246.999 448.731 253.495 448.731H482.359Z" fill="#55229E"/>
<path d="M623.047 588.5C595.146 588.5 572.528 566.259 572.528 538.823C572.528 511.387 595.146 489.146 623.047 489.146C650.948 489.146 673.566 511.387 673.566 538.823C673.566 566.259 650.948 588.5 623.047 588.5Z" fill="#9E616A"/>
<path d="M675.734 491.082C673.189 489.053 670.214 487.186 666.959 487.291C663.704 487.396 660.404 490.333 661.078 493.515C655.1 482.941 645.585 474.808 634.203 470.544C622.821 466.28 610.299 466.158 598.835 470.199C590.746 473.05 582.814 478.754 580.956 487.119C580.479 489.267 580.376 491.622 579.034 493.366C577.342 495.564 574.104 496.062 571.438 495.288C571.411 495.28 571.385 495.273 571.358 495.265C570.908 495.111 570.421 495.096 569.962 495.221C569.503 495.347 569.092 495.607 568.783 495.968C568.473 496.329 568.28 496.775 568.226 497.247C568.173 497.72 568.263 498.197 568.485 498.618L570.773 502.883C567.888 503.525 564.89 503.462 562.035 502.697C561.561 502.573 561.06 502.598 560.6 502.77C560.141 502.941 559.746 503.251 559.47 503.655C559.193 504.06 559.049 504.54 559.057 505.03C559.064 505.52 559.223 505.995 559.512 506.391C567.059 516.742 579.667 523.427 592.534 523.348C601.679 523.293 610.918 520.144 619.818 522.245C623.261 523.058 626.478 524.63 629.234 526.847C631.989 529.064 634.212 531.869 635.741 535.057C637.27 538.244 638.065 541.733 638.068 545.268C638.071 548.802 637.281 552.292 635.758 555.482C638.492 552.495 643.778 553.202 646.574 556.131C649.371 559.061 650.095 563.433 649.813 567.471C649.382 573.648 646.96 579.468 644.406 585.132C665.816 584.459 686.067 569.454 692.883 549.161C699.728 528.782 692.554 504.487 675.734 491.082Z" fill="#2F2E41"/>
<path d="M689.032 465.158C686.432 466.281 683.719 465.05 682.581 462.229C681.426 459.365 682.505 456.458 685.146 455.316C687.788 454.174 690.453 455.409 691.627 458.319C692.783 461.185 691.716 463.997 689.032 465.158ZM684.051 449.679L681.984 450.573C681.467 450.793 680.89 450.805 680.365 450.606C679.841 450.407 679.407 450.011 679.151 449.497L679.049 449.29C676.824 445.137 676.57 440.09 678.296 434.297C679.895 429.1 680.559 425.445 679.223 422.133C677.679 418.305 674.381 417.106 670.176 418.843C668.545 419.548 668.026 419.537 666.743 420.855C666.463 421.145 666.131 421.374 665.764 421.528C665.398 421.682 665.005 421.759 664.609 421.752C664.227 421.748 663.849 421.663 663.499 421.504C663.149 421.345 662.833 421.115 662.57 420.827C662.065 420.272 661.782 419.539 661.778 418.776C661.774 418.013 662.05 417.277 662.55 416.717C664.708 414.379 667.31 412.529 670.192 411.285C679.228 407.379 683.776 413.145 685.858 418.305C687.894 423.353 686.748 428.035 684.908 434.1C683.366 439.14 683.456 442.874 685.208 446.587C685.334 446.867 685.405 447.172 685.415 447.481C685.425 447.791 685.374 448.099 685.266 448.388C685.158 448.677 684.995 448.94 684.786 449.162C684.577 449.384 684.327 449.56 684.051 449.679L684.051 449.679Z" fill="black"/>
<path d="M430.467 489.146H475.451C475.594 489.148 475.736 489.105 475.868 489.021C476.001 488.937 476.121 488.814 476.222 488.657C476.324 488.501 476.404 488.314 476.459 488.109C476.514 487.904 476.542 487.684 476.542 487.462C476.542 487.24 476.514 487.02 476.459 486.815C476.404 486.61 476.324 486.424 476.222 486.267C476.121 486.111 476.001 485.987 475.868 485.903C475.736 485.819 475.594 485.777 475.451 485.778H430.467C430.181 485.781 429.908 485.96 429.706 486.276C429.504 486.591 429.391 487.018 429.391 487.462C429.391 487.907 429.504 488.333 429.706 488.649C429.908 488.964 430.181 489.143 430.467 489.146Z" fill="white"/>
<path d="M373.266 489.146H419.842C419.99 489.147 420.137 489.126 420.274 489.084C420.411 489.042 420.535 488.98 420.64 488.902C420.745 488.823 420.829 488.73 420.886 488.628C420.942 488.525 420.972 488.415 420.972 488.304C420.972 488.193 420.942 488.083 420.886 487.981C420.829 487.878 420.745 487.785 420.64 487.707C420.535 487.629 420.411 487.567 420.274 487.525C420.137 487.483 419.99 487.462 419.842 487.462H373.266C373.118 487.462 372.972 487.483 372.835 487.525C372.698 487.567 372.573 487.629 372.468 487.707C372.363 487.785 372.28 487.878 372.223 487.981C372.166 488.083 372.137 488.193 372.137 488.304C372.137 488.415 372.166 488.525 372.223 488.628C372.28 488.73 372.363 488.823 372.468 488.902C372.573 488.98 372.698 489.042 372.835 489.084C372.972 489.126 373.118 489.147 373.266 489.146V489.146Z" fill="white"/>
<path d="M315.973 489.146H360.957C361.243 489.145 361.517 489.055 361.718 488.898C361.92 488.74 362.033 488.527 362.033 488.304C362.033 488.082 361.92 487.869 361.718 487.711C361.517 487.553 361.243 487.464 360.957 487.462H315.973C315.83 487.462 315.688 487.483 315.556 487.525C315.424 487.567 315.303 487.629 315.202 487.707C315.101 487.785 315.02 487.878 314.965 487.981C314.91 488.083 314.882 488.193 314.882 488.304C314.882 488.415 314.91 488.525 314.965 488.628C315.02 488.73 315.101 488.823 315.202 488.902C315.303 488.98 315.424 489.042 315.556 489.084C315.688 489.126 315.83 489.147 315.973 489.146H315.973Z" fill="white"/>
<path d="M260.349 489.146H303.74C304.016 489.145 304.28 489.055 304.474 488.898C304.669 488.74 304.778 488.527 304.778 488.304C304.778 488.082 304.669 487.869 304.474 487.711C304.28 487.553 304.016 487.464 303.74 487.462H260.349C260.073 487.464 259.809 487.553 259.614 487.711C259.42 487.869 259.311 488.082 259.311 488.304C259.311 488.527 259.42 488.74 259.614 488.898C259.809 489.055 260.073 489.145 260.349 489.146Z" fill="white"/>
<path d="M455.493 479.043C451.308 479.043 447.915 475.273 447.915 470.623C447.915 465.973 451.308 462.203 455.493 462.203C459.678 462.203 463.071 465.973 463.071 470.623C463.071 475.273 459.678 479.043 455.493 479.043Z" fill="white"/>
<path d="M395.712 479.043C391.062 479.043 387.292 475.273 387.292 470.623C387.292 465.973 391.062 462.203 395.712 462.203C400.362 462.203 404.132 465.973 404.132 470.623C404.132 475.273 400.362 479.043 395.712 479.043Z" fill="white"/>
<path d="M336.774 479.043C332.123 479.043 328.354 475.273 328.354 470.623C328.354 465.973 332.123 462.203 336.774 462.203C341.424 462.203 345.193 465.973 345.193 470.623C345.193 475.273 341.424 479.043 336.774 479.043Z" fill="white"/>
<path d="M279.518 479.043C274.868 479.043 271.099 475.273 271.099 470.623C271.099 465.973 274.868 462.203 279.518 462.203C284.169 462.203 287.938 465.973 287.938 470.623C287.938 475.273 284.169 479.043 279.518 479.043Z" fill="white"/>
</svg>

